<svg xmlns="http://www.w3.org/2000/svg" width="24" height="24" viewBox="0 0 24 24" fill="none">
  <path d="M22.0681 4.00024H1.92718C0.864397 4.00024 0 4.88624 0 5.97558V13.7462C0 14.8355 0.864397 15.7215 1.92718 15.7215H22.0728C23.1356 15.7215 24 14.8355 24 13.7462V5.97558C23.9953 4.88624 23.1309 4.00024 22.0681 4.00024ZM22.6633 13.7462C22.6633 14.0803 22.3987 14.3514 22.0728 14.3514H1.92718C1.60126 14.3514 1.33674 14.0803 1.33674 13.7462V5.97558C1.33674 5.64152 1.60126 5.37039 1.92718 5.37039H22.0728C22.3987 5.37039 22.6633 5.64152 22.6633 5.97558V13.7462Z" fill="currentColor"/>
  <path d="M20.7503 11.7371H3.24511C2.87668 11.7371 2.5791 12.0421 2.5791 12.4197C2.5791 12.7974 2.87668 13.1024 3.24511 13.1024H20.755C21.1235 13.1024 21.4211 12.7974 21.4211 12.4197C21.4211 12.0421 21.1188 11.7371 20.7503 11.7371Z" fill="currentColor"/>
  <path d="M20.8115 6.54688C20.4431 6.54688 20.1455 6.85189 20.1455 7.22953V7.45708C20.1455 7.83472 20.4431 8.13973 20.8115 8.13973C21.18 8.13973 21.4775 7.83472 21.4775 7.45708V7.22953C21.4775 6.85189 21.18 6.54688 20.8115 6.54688Z" fill="currentColor"/>
  <path d="M20.8115 9.13232C20.4431 9.13232 20.1455 9.43734 20.1455 9.81498V10.0425C20.1455 10.4202 20.4431 10.7252 20.8115 10.7252C21.18 10.7252 21.4775 10.4202 21.4775 10.0425V9.81498C21.4775 9.44218 21.18 9.13232 20.8115 9.13232Z" fill="currentColor"/>
  <path d="M4.95476 16.7673C4.59578 16.6753 4.2368 16.898 4.14705 17.266L3.65108 19.2897C3.56134 19.6577 3.77862 20.0305 4.1376 20.1176C4.54854 20.2145 4.86974 19.9288 4.94532 19.619L5.44128 17.5952C5.53103 17.2321 5.31375 16.8593 4.95476 16.7673Z" fill="currentColor"/>
  <path d="M9.64999 17.5565C9.28155 17.5226 8.96036 17.8034 8.93202 18.181L8.76669 20.2629C8.73835 20.6405 9.00759 20.9794 9.37602 20.9988C9.75863 21.023 10.0657 20.7325 10.094 20.3742L10.2593 18.2924C10.2924 17.9196 10.0184 17.5904 9.64999 17.5565Z" fill="currentColor"/>
  <path d="M19.8477 17.2659C19.7579 16.8979 19.3942 16.6801 19.0399 16.7672C18.681 16.8592 18.4637 17.232 18.5534 17.5951L19.0494 19.6188C19.125 19.9287 19.4509 20.2144 19.8571 20.1175C20.2161 20.0304 20.4334 19.6527 20.3436 19.2896L19.8477 17.2659Z" fill="currentColor"/>
  <path d="M14.3454 17.5564C13.977 17.5855 13.703 17.9147 13.7361 18.2924L13.9014 20.3742C13.9298 20.7325 14.2415 21.023 14.6194 20.9988C14.9878 20.9746 15.2571 20.6405 15.2287 20.2628L15.0634 18.181C15.0303 17.8082 14.7139 17.5226 14.3454 17.5564Z" fill="currentColor"/>
</svg>
