<svg xmlns="http://www.w3.org/2000/svg" width="24" height="24" viewBox="0 0 24 24" fill="none">
  <path d="M23.2969 12.7671H5.61844V5.16869C5.61844 4.16732 6.46547 3.3526 7.50656 3.3526C8.33016 3.3526 9.03141 3.86253 9.28922 4.57084C8.00297 4.79628 7.02469 5.88061 7.02469 7.18181V7.83782C7.02469 8.21114 7.33969 8.51412 7.72781 8.51412H12.4683C12.8564 8.51412 13.1714 8.21114 13.1714 7.83782V7.18181C13.1714 5.8238 12.1059 4.70159 10.7367 4.54604C10.4353 3.09606 9.10172 2 7.50656 2C5.69016 2 4.21219 3.42158 4.21219 5.16869V12.7667H0.703125C0.315 12.7667 0 13.0697 0 13.443C0 13.8163 0.315 14.1193 0.703125 14.1193H1.04297L1.70156 17.1036C1.94156 18.1915 2.56875 19.1762 3.46688 19.8764C3.52125 19.9188 3.57609 19.9598 3.63234 19.9995L3.04688 20.9883C2.85469 21.3129 2.97234 21.7259 3.30984 21.9107C3.41953 21.9707 3.53906 21.9995 3.65719 21.9995C3.90141 21.9995 4.13906 21.8765 4.26891 21.6578L4.8675 20.6469C5.43516 20.853 6.04078 20.9621 6.65344 20.9621H17.3466C17.9592 20.9621 18.5648 20.853 19.133 20.6469L19.7316 21.6578C19.8614 21.8769 20.0986 21.9995 20.3433 21.9995C20.4614 21.9995 20.5809 21.9707 20.6906 21.9107C21.0281 21.7259 21.1458 21.3129 20.9536 20.9883L20.3681 19.9995C20.4239 19.9594 20.4792 19.9183 20.5331 19.8764C21.4317 19.1762 22.0584 18.1915 22.2989 17.1036L22.9575 14.1193H23.2973C23.6855 14.1193 24.0005 13.8163 24.0005 13.443C24.0005 13.0697 23.6855 12.7667 23.2973 12.7667L23.2969 12.7671ZM11.7652 7.16152H8.43094C8.44219 6.45276 9.045 5.87971 9.78469 5.87971H10.4119C11.1511 5.87971 11.7539 6.45276 11.7656 7.16152H11.7652ZM20.9231 16.8236C20.5669 18.4382 19.0627 19.6104 17.3466 19.6104H6.65344C4.93734 19.6104 3.43313 18.4386 3.07687 16.8236L2.48062 14.1198H21.5194L20.9231 16.8236Z" fill="currentColor"/>
  <path d="M11.4666 9.46094H11.4647C11.0766 9.46184 10.7625 9.76527 10.7634 10.139L10.7662 11.2495C10.7672 11.6224 11.0817 11.924 11.4694 11.924H11.4712C11.8594 11.9231 12.1734 11.6197 12.1725 11.2459L12.1697 10.1354C12.1687 9.76257 11.8542 9.46094 11.4666 9.46094Z" fill="currentColor"/>
  <path d="M8.72962 9.46094C8.34196 9.46094 8.02743 9.76257 8.0265 10.1354L8.02368 11.2459C8.02275 11.6197 8.33681 11.9231 8.72493 11.924H8.72681C9.11446 11.924 9.429 11.6224 9.42993 11.2495L9.43275 10.139C9.43368 9.76527 9.11962 9.46184 8.7315 9.46094H8.72962Z" fill="currentColor"/>
</svg>
