<svg xmlns="http://www.w3.org/2000/svg" width="24" height="24" viewBox="0 0 24 24" fill="none">
  <path d="M18.2432 1.9502C19.5146 1.9502 20.5486 2.98381 20.5488 4.25488V10.333C21.984 10.6967 23.0498 11.9973 23.0498 13.5439V18.1055C23.0496 18.4946 22.734 18.8105 22.3447 18.8105H20.5479V20.3447C20.5479 20.7341 20.2322 21.0498 19.8428 21.0498C19.4534 21.0497 19.1377 20.734 19.1377 20.3447V18.8105H4.8623V20.3447C4.8623 20.734 4.54655 21.0497 4.15723 21.0498C3.76782 21.0498 3.45215 20.7341 3.45215 20.3447V18.8105H1.65527C1.26599 18.8105 0.950389 18.4946 0.950195 18.1055V13.5439C0.950195 11.9969 2.01649 10.6964 3.45215 10.333V4.25488C3.45235 2.98381 4.48634 1.9502 5.75781 1.9502H18.2432ZM4.26562 11.6396C3.21558 11.6397 2.36133 12.4942 2.36133 13.5439V17.4004H21.6406V13.5439C21.6406 12.4938 20.7855 11.6396 19.7354 11.6396H4.26562ZM5.75781 3.36035C5.26472 3.36035 4.86251 3.76163 4.8623 4.25488V10.2295H6.92871V9.24609C6.92871 7.50576 8.34511 6.08984 10.0859 6.08984H13.915C15.6559 6.08984 17.0723 7.50576 17.0723 9.24609V10.2295H19.1377V4.25488C19.1375 3.76203 18.7367 3.36035 18.2432 3.36035H5.75781ZM10.0859 7.5C9.12307 7.5 8.33984 8.28356 8.33984 9.24609V10.2295H15.6611V9.24609C15.6611 8.28356 14.8779 7.5 13.915 7.5H10.0859Z" fill="#222222" stroke="currentColor" stroke-width="0.1"/>
</svg>
