<svg xmlns="http://www.w3.org/2000/svg" width="17" height="24" viewBox="0 0 17 24" fill="none">
  <path d="M15.6667 23V23.75C16.0809 23.75 16.4167 23.4142 16.4167 23H15.6667ZM1 23H0.25C0.25 23.4142 0.585786 23.75 1 23.75L1 23ZM14.9993 1.13321L14.6588 1.80147L14.9993 1.13321ZM15.5335 1.66734L14.8652 2.00784L15.5335 1.66734ZM1.66734 1.13321L2.00784 1.80147L1.66734 1.13321ZM1.13321 1.66734L1.80147 2.00784L1.13321 1.66734ZM4.66667 5.13889C4.25245 5.13889 3.91667 5.47468 3.91667 5.88889C3.91667 6.3031 4.25245 6.63889 4.66667 6.63889V5.88889V5.13889ZM5.88889 6.63889C6.3031 6.63889 6.63889 6.3031 6.63889 5.88889C6.63889 5.47468 6.3031 5.13889 5.88889 5.13889V5.88889V6.63889ZM4.66667 8.80556C4.25245 8.80556 3.91667 9.14134 3.91667 9.55556C3.91667 9.96977 4.25245 10.3056 4.66667 10.3056V9.55556V8.80556ZM5.88889 10.3056C6.3031 10.3056 6.63889 9.96977 6.63889 9.55556C6.63889 9.14134 6.3031 8.80556 5.88889 8.80556V9.55556V10.3056ZM10.7778 8.80556C10.3636 8.80556 10.0278 9.14134 10.0278 9.55556C10.0278 9.96977 10.3636 10.3056 10.7778 10.3056V9.55556V8.80556ZM12 10.3056C12.4142 10.3056 12.75 9.96977 12.75 9.55556C12.75 9.14134 12.4142 8.80556 12 8.80556V9.55556V10.3056ZM10.7778 12.4722C10.3636 12.4722 10.0278 12.808 10.0278 13.2222C10.0278 13.6364 10.3636 13.9722 10.7778 13.9722V13.2222V12.4722ZM12 13.9722C12.4142 13.9722 12.75 13.6364 12.75 13.2222C12.75 12.808 12.4142 12.4722 12 12.4722V13.2222V13.9722ZM4.66667 12.4722C4.25245 12.4722 3.91667 12.808 3.91667 13.2222C3.91667 13.6364 4.25245 13.9722 4.66667 13.9722V13.2222V12.4722ZM5.88889 13.9722C6.3031 13.9722 6.63889 13.6364 6.63889 13.2222C6.63889 12.808 6.3031 12.4722 5.88889 12.4722V13.2222V13.9722ZM10.7778 5.13889C10.3636 5.13889 10.0278 5.47468 10.0278 5.88889C10.0278 6.3031 10.3636 6.63889 10.7778 6.63889V5.88889V5.13889ZM12 6.63889C12.4142 6.63889 12.75 6.3031 12.75 5.88889C12.75 5.47468 12.4142 5.13889 12 5.13889V5.88889V6.63889ZM2.95556 1V1.75H13.7111V1V0.25H2.95556V1ZM15.6667 2.95556H14.9167V23H15.6667H16.4167V2.95556H15.6667ZM15.6667 23V22.25H1V23V23.75H15.6667V23ZM1 23H1.75V2.95556H1H0.25V23H1ZM13.7111 1V1.75C14.0657 1.75 14.2866 1.75058 14.4528 1.76416C14.6102 1.77702 14.6515 1.79771 14.6588 1.80147L14.9993 1.13321L15.3398 0.464959C15.0857 0.335502 14.8251 0.289584 14.5749 0.269143C14.3335 0.249417 14.041 0.25 13.7111 0.25V1ZM15.6667 2.95556H16.4167C16.4167 2.62568 16.4172 2.33316 16.3975 2.09173C16.3771 1.84154 16.3312 1.58093 16.2017 1.32685L15.5335 1.66734L14.8652 2.00784C14.869 2.01521 14.8896 2.05645 14.9025 2.21388C14.9161 2.38006 14.9167 2.60093 14.9167 2.95556H15.6667ZM14.9993 1.13321L14.6588 1.80147C14.7477 1.84674 14.8199 1.91898 14.8652 2.00784L15.5335 1.66734L16.2017 1.32685C16.0126 0.955755 15.7109 0.654043 15.3398 0.464959L14.9993 1.13321ZM2.95556 1V0.25C2.62568 0.25 2.33316 0.249417 2.09173 0.269143C1.84154 0.289584 1.58093 0.335502 1.32685 0.464959L1.66734 1.13321L2.00784 1.80147C2.01521 1.79771 2.05645 1.77702 2.21388 1.76416C2.38006 1.75058 2.60093 1.75 2.95556 1.75V1ZM1 2.95556H1.75C1.75 2.60093 1.75058 2.38006 1.76416 2.21388C1.77702 2.05645 1.79771 2.01521 1.80147 2.00784L1.13321 1.66734L0.464959 1.32685C0.335502 1.58093 0.289584 1.84154 0.269143 2.09173C0.249417 2.33316 0.25 2.62568 0.25 2.95556H1ZM1.66734 1.13321L1.32685 0.464959C0.955755 0.654043 0.654043 0.955755 0.464959 1.32685L1.13321 1.66734L1.80147 2.00784C1.84674 1.91898 1.91898 1.84674 2.00784 1.80147L1.66734 1.13321ZM4.66667 5.88889V6.63889H5.88889V5.88889V5.13889H4.66667V5.88889ZM4.66667 9.55556V10.3056H5.88889V9.55556V8.80556H4.66667V9.55556ZM10.7778 9.55556V10.3056H12V9.55556V8.80556H10.7778V9.55556ZM10.7778 13.2222V13.9722H12V13.2222V12.4722H10.7778V13.2222ZM4.66667 13.2222V13.9722H5.88889V13.2222V12.4722H4.66667V13.2222ZM10.7778 5.88889V6.63889H12V5.88889V5.13889H10.7778V5.88889ZM10.7778 19.3333H10.0278V23H10.7778H11.5278V19.3333H10.7778ZM5.88889 23H6.63889V19.3333H5.88889H5.13889V23H5.88889ZM8.33333 16.8889V17.6389C9.26915 17.6389 10.0278 18.3975 10.0278 19.3333H10.7778H11.5278C11.5278 17.5691 10.0976 16.1389 8.33333 16.1389V16.8889ZM8.33333 16.8889V16.1389C6.56909 16.1389 5.13889 17.5691 5.13889 19.3333H5.88889H6.63889C6.63889 18.3975 7.39752 17.6389 8.33333 17.6389V16.8889Z" fill="#currentColor"/>
</svg>
