<svg xmlns="http://www.w3.org/2000/svg" width="24" height="24" viewBox="0 0 24 24" fill="none">
  <path d="M20.7422 0.224854C21.0713 0.225117 21.3389 0.492467 21.3389 0.82251V21.3694C21.3389 21.6994 21.0721 21.9668 20.7422 21.967H19.4385V23.2776C19.4385 23.6076 19.1718 23.8751 18.8418 23.8752C18.5117 23.8752 18.2441 23.6077 18.2441 23.2776V21.967H7.01953V23.2776C7.01953 23.6076 6.75276 23.875 6.42285 23.8752C6.09272 23.8752 5.8252 23.6077 5.8252 23.2776V21.967H4.52246C4.19233 21.967 3.9248 21.6995 3.9248 21.3694V0.82251C3.9248 0.492374 4.19233 0.224854 4.52246 0.224854H20.7422ZM13.2285 20.7727H20.1436V1.41919H13.2285V20.7727ZM5.11914 20.7727H12.0342V1.41919H5.11914V20.7727Z" fill="currentColor" stroke="currentColor" stroke-width="0.15"/>
  <path d="M10.0684 11.3567C10.4512 11.3567 10.7616 11.6672 10.7617 12.05C10.7617 12.433 10.4513 12.7434 10.0684 12.7434C9.68551 12.7432 9.375 12.4329 9.375 12.05C9.37516 11.6673 9.68561 11.3568 10.0684 11.3567Z" fill="currentColor" stroke="currentColor" stroke-width="0.15"/>
  <path d="M15.1934 11.3567C15.5762 11.3567 15.8866 11.6672 15.8867 12.05C15.8867 12.433 15.5763 12.7434 15.1934 12.7434C14.8105 12.7432 14.5 12.4329 14.5 12.05C14.5002 11.6673 14.8106 11.3568 15.1934 11.3567Z" fill="currentColor" stroke="currentColor" stroke-width="0.15"/>
</svg>
