<svg xmlns="http://www.w3.org/2000/svg" width="24" height="24" viewBox="0 0 24 24" fill="none">
  <path d="M20.8155 6.36682C20.6262 4.94594 19.407 3.875 17.9788 3.875H16.9016C16.7752 3.37906 16.6596 2.94422 16.561 2.58395C16.306 1.65092 15.4565 1 14.4966 1H8.076C7.11437 1 6.26525 1.65137 6.01034 2.58395C5.91167 2.94422 5.79605 3.37906 5.67015 3.875H2.7143C2.49421 3.875 2.28661 3.97697 2.1509 4.15172C2.01607 4.32647 1.96786 4.55422 2.02143 4.76895C2.27054 5.485 2.35715 7.40676 4.13798 9.19869L4.44513 9.50775C3.88932 12.584 3.4286 16.1872 3.4286 19.6875V21.8438C3.4286 23.0324 4.39022 24 5.57149 24H17.0002C18.1815 24 19.1431 23.0324 19.1431 21.8438V19.6875C19.1431 14.4069 18.0954 8.89412 17.2529 5.3125H17.9788C18.694 5.3125 19.3048 5.84797 19.3994 6.55729L20.578 15.4698C20.6258 15.8314 20.9325 16.0938 21.2851 16.0938C21.3164 16.0938 21.3485 16.0915 21.3802 16.0875C21.7709 16.0349 22.0459 15.6733 21.9936 15.2802L20.815 6.36682H20.8155ZM7.38714 2.96578C7.47197 2.65447 7.7559 2.4375 8.0751 2.4375H14.4957C14.8158 2.4375 15.0984 2.65447 15.1837 2.96578C15.2551 3.22723 15.3382 3.53943 15.4252 3.875H7.14607C7.23312 3.53943 7.31616 3.22723 7.38759 2.96578H7.38714ZM3.63083 5.3125H5.31881C5.1447 6.05191 4.963 6.87488 4.78219 7.76074C3.82727 6.58199 3.69155 5.4859 3.63083 5.3125ZM17.0002 22.5625H5.57149C5.17773 22.5625 4.85719 22.24 4.85719 21.8438V21.125H17.7145V21.8438C17.7145 22.24 17.394 22.5625 17.0002 22.5625ZM17.7145 19.6875H4.85719C4.85719 14.3759 5.95007 8.80473 6.78803 5.3125H15.7846C16.6217 8.80473 17.7145 14.3759 17.7145 19.6875Z" fill="currentColor"/>
</svg>
