<svg xmlns="http://www.w3.org/2000/svg" width="18" height="22" viewBox="0 0 18 22" fill="none">
  <path d="M4.31169 3.22228C3.22065 3.22313 2.64876 3.23709 2.20548 3.46443C1.79005 3.67748 1.4523 4.01744 1.24064 4.43558C1 4.91094 1 5.53322 1 6.77778V17.4444C1 18.689 1 19.3113 1.24064 19.7866C1.4523 20.2048 1.79005 20.5447 2.20548 20.7578C2.67775 21 3.29599 21 4.53247 21H12.9221C14.1586 21 14.7768 21 15.2491 20.7578C15.6645 20.5447 16.0022 20.2048 16.2139 19.7866C16.4545 19.3113 16.4545 18.689 16.4545 17.4444V6.77778C16.4545 5.53322 16.4545 4.91094 16.2139 4.43558C16.0022 4.01744 15.6645 3.67748 15.2491 3.46443C14.8058 3.23709 14.2339 3.22313 13.1429 3.22228M4.31169 3.22228V5.44444H13.1429V3.22228M4.31169 3.22228V2.89679C4.31169 2.39373 4.51023 1.91127 4.86364 1.55556C5.21704 1.19984 5.69636 1 6.19616 1H11.2584C11.7582 1 12.2375 1.19984 12.5909 1.55556C12.9443 1.91127 13.1429 2.39373 13.1429 2.89679V3.22228M8.72727 14.3333H5.41558M12.039 9.88889H5.41558" stroke="currentColor" stroke-width="1.5" stroke-linecap="round" stroke-linejoin="round"/>
</svg>
