<svg xmlns="http://www.w3.org/2000/svg" width="24" height="24" viewBox="0 0 24 24" fill="none">
  <g clip-path="url(#clip0_818_6075)">
    <path d="M23.3807 8.07258L15.9275 0.619453C15.1025 -0.206484 13.7671 -0.206484 12.9416 0.619453L8.52457 5.03648C6.23379 3.3368 2.9741 3.5243 0.898008 5.60039C0.622383 5.87602 0.622383 6.32273 0.898008 6.59883L3.93035 9.63117L0.619102 12.942C-0.205898 13.767 -0.206836 15.1024 0.619102 15.9279L8.07223 23.381C8.89723 24.207 10.2327 24.207 11.0582 23.381L15.74 18.6991L18.3913 21.3504C18.6669 21.626 19.1136 21.626 19.3897 21.3504L21.6604 19.0798C21.936 18.8041 21.936 18.357 21.6604 18.0813L19.0091 15.4301L23.3811 11.058C24.2061 10.233 24.2071 8.89758 23.3811 8.07211L23.3807 8.07258ZM8.18004 6.59883L15.0186 13.4374L12.3758 16.0802L2.43457 6.13898C4.17035 4.88273 6.61723 5.03555 8.18004 6.59836V6.59883ZM10.0597 22.383C9.78645 22.6563 9.34441 22.6573 9.0702 22.383L1.61707 14.9295C1.34379 14.6562 1.34379 14.2141 1.61707 13.9404L4.92832 10.6291L11.8771 17.5779C12.1527 17.8535 12.5994 17.8535 12.8755 17.5779L13.7469 16.7065L14.7421 17.7016L10.0602 22.3835L10.0597 22.383ZM18.8905 19.8532L14.7449 15.7076L16.0171 14.4354C16.1643 14.5826 19.8772 18.2955 20.1627 18.581L18.8905 19.8532ZM22.3827 10.0601L18.0107 14.4321C17.7271 14.1485 10.003 6.42445 9.56801 5.98945L13.94 1.61742C14.2133 1.34414 14.6554 1.3432 14.9296 1.61742L22.3832 9.07102C22.6564 9.3443 22.6564 9.78633 22.3832 10.0601H22.3827Z" fill="currentColor"/>
    <path d="M16.3819 5.67303C16.1063 5.3974 15.6596 5.3974 15.3835 5.67303C15.1079 5.94865 15.1079 6.39537 15.3835 6.67147L17.3283 8.61631C17.6039 8.89193 18.0507 8.89193 18.3268 8.61631C18.6024 8.34068 18.6024 7.89396 18.3268 7.61787L16.3819 5.67303Z" fill="currentColor"/>
  </g>
  <defs>
    <clipPath id="clip0_818_6075">
      <rect width="24" height="24" fill="white" transform="translate(0 0.000244141)"/>
    </clipPath>
  </defs>
</svg>
