<svg xmlns="http://www.w3.org/2000/svg" width="24" height="24" viewBox="0 0 24 24" fill="none">
  <path d="M20.0332 0.0598145C21.4064 0.0598213 22.5312 1.18471 22.5312 2.55786V21.5413H15.7041V20.8752C15.7042 17.8585 17.8271 15.4314 19.5371 13.967L19.8555 13.6946L19.4639 13.5442C17.1195 12.6425 13.6392 10.5937 12.0156 6.16235L11.7812 5.52173L11.5469 6.16235C9.92309 10.5941 6.46086 12.6428 4.11719 13.5442L3.72559 13.6946L4.04395 13.967C5.75393 15.4314 7.87689 17.8585 7.87695 20.8752V21.5413H1.0498V2.55786C1.0498 1.18471 2.1747 0.0598145 3.54785 0.0598145H20.0332ZM2.38184 20.2092H6.50586L6.44922 19.9124C6.00992 17.6022 4.10469 15.7221 2.78809 14.6633L2.38184 14.3362V20.2092ZM20.7939 14.6624C19.4678 15.7214 17.5622 17.5934 17.123 19.9133L17.0664 20.2092H21.1992V14.3381L20.7939 14.6624ZM18.5732 17.3H18.5742H18.5732ZM4.75098 16.9719C4.58182 16.7553 4.40579 16.5476 4.22656 16.3499C4.40576 16.5476 4.58185 16.7552 4.75098 16.9719ZM18.373 14.7112C18.1471 14.9416 17.9221 15.1872 17.7021 15.4465C17.922 15.1872 18.1471 14.9416 18.373 14.7112ZM20.165 15.5286V15.5295V15.5286ZM12.4707 1.39185L12.4844 1.65454C12.6892 5.60627 14.1869 8.19673 15.9443 9.88013C17.696 11.5578 19.692 12.322 20.8828 12.6536L21.1992 12.7415V2.55786C21.1992 1.91605 20.675 1.39185 20.0332 1.39185H16.084L16.1025 1.65845C16.3129 4.75007 17.5658 6.61092 18.8682 7.70923V9.32935C17.0507 8.16266 15.0026 5.91243 14.751 1.6272L14.7373 1.39185H12.4707ZM3.54785 1.39185C2.90604 1.39185 2.38184 1.91605 2.38184 2.55786V12.7336L2.69922 12.6438C3.89486 12.3075 5.89044 11.5345 7.64062 9.85474C9.39655 8.16933 10.8918 5.5836 11.0967 1.65454L11.1104 1.39185H8.84375L8.83008 1.6272C8.57852 5.9109 6.53182 8.15365 4.71387 9.32739V7.70923C6.02512 6.61023 7.26823 4.74879 7.47852 1.65845L7.49707 1.39185H3.54785ZM20.9307 2.37524C20.9427 2.43431 20.9492 2.49537 20.9492 2.55786L20.9443 2.46411C20.9413 2.43403 20.9366 2.40442 20.9307 2.37524ZM3.10547 12.259C2.93674 12.3144 2.77821 12.3624 2.63184 12.4036C2.77822 12.3624 2.93674 12.3144 3.10547 12.259ZM4.70508 7.38989C4.62487 7.46125 4.54454 7.52974 4.46387 7.59497V9.77368L4.46289 9.77466V7.59497L4.70508 7.38989ZM10.6709 8.54517C10.53 8.77345 10.3837 8.99291 10.2334 9.20435C10.3837 8.9929 10.5301 8.77345 10.6709 8.54517ZM13.332 9.20532V9.20435V9.20532ZM16.3438 7.28052H16.3447C16.5136 7.51554 16.6889 7.73534 16.8691 7.94067C16.9891 8.07739 17.1109 8.20802 17.2344 8.33228C17.2961 8.39442 17.3585 8.45478 17.4209 8.51392C17.6082 8.69139 17.798 8.85546 17.9883 9.00708C17.4173 8.55213 16.8501 7.98544 16.3438 7.28052ZM6.8916 7.72583C6.7736 7.86924 6.65338 8.00628 6.53125 8.13696C6.65337 8.00627 6.77361 7.86925 6.8916 7.72583ZM5.41113 6.65942C5.25937 6.84215 5.10297 7.01062 4.94434 7.16626C5.10297 7.01063 5.25937 6.84213 5.41113 6.65942ZM15.1768 5.05786H15.1777H15.1768ZM14.5332 2.07349H14.5342C14.572 2.49851 14.6278 2.90309 14.6992 3.28833C14.7468 3.54524 14.8013 3.79352 14.8623 4.03345C14.7098 3.43372 14.5963 2.78199 14.5332 2.07349ZM9.04785 2.07349C8.98475 2.78173 8.87216 3.43325 8.71973 4.03247H8.71875C8.84074 3.55298 8.93789 3.04019 9.00391 2.49146C9.03689 2.21729 9.06194 1.93416 9.0791 1.64185L9.04785 2.07349ZM7.17773 2.20728C7.13545 2.57443 7.07803 2.92212 7.00684 3.25122C7.04243 3.08667 7.07392 2.91735 7.10254 2.74341L7.17773 2.20728ZM20.9092 2.29224C20.9104 2.29617 20.9119 2.3 20.9131 2.30396C20.9119 2.3 20.9104 2.29617 20.9092 2.29224ZM20.877 2.20239C20.8853 2.22216 20.8924 2.2425 20.8994 2.26294C20.8924 2.24249 20.8853 2.22217 20.877 2.20239ZM20.8447 2.13501C20.8516 2.14815 20.858 2.16155 20.8643 2.17505C20.858 2.16154 20.8516 2.14815 20.8447 2.13501ZM20.8076 2.07056C20.8114 2.07659 20.8147 2.08298 20.8184 2.08911C20.8147 2.08298 20.8114 2.0766 20.8076 2.07056ZM20.7021 1.93481C20.7075 1.94055 20.7126 1.94652 20.7178 1.95239C20.7126 1.94652 20.7075 1.94056 20.7021 1.93481ZM20.5811 1.82544C20.5863 1.82935 20.5916 1.83314 20.5967 1.83716C20.5916 1.83314 20.5863 1.82935 20.5811 1.82544Z" fill="currentColor"/>
</svg>
