<svg xmlns="http://www.w3.org/2000/svg" width="24" height="24" viewBox="0 0 24 24" fill="none">
  <path d="M23.2969 9.89062H16.9242V2.875C16.9242 1.84094 16.0833 1 15.0492 1H8.95547C7.92141 1 7.08047 1.84094 7.08047 2.875V9.89062H0.703125C0.315 9.89062 0 10.2056 0 10.5938V13.4062C0 13.7944 0.315 14.1094 0.703125 14.1094H1.45312V23.25C1.45312 23.6381 1.76813 23.9531 2.15625 23.9531C2.54437 23.9531 2.85938 23.6381 2.85938 23.25V14.1094H5.67656V15.2812C5.67656 16.1859 6.4125 16.9219 7.31719 16.9219H11.2992V20.4844H9.66094C9.42563 20.4844 9.20625 20.602 9.07594 20.7975L7.66969 22.9069C7.45406 23.2298 7.54172 23.6667 7.86469 23.8819C8.18766 24.097 8.62453 24.0098 8.83969 23.6869L10.0373 21.8906H11.2992V23.2969C11.2992 23.685 11.6142 24 12.0023 24C12.3905 24 12.7055 23.685 12.7055 23.2969V21.8906H13.9673L15.165 23.6869C15.3811 24.0108 15.818 24.0966 16.14 23.8819C16.463 23.6663 16.5506 23.2298 16.335 22.9069L14.9288 20.7975C14.7984 20.602 14.5791 20.4844 14.3438 20.4844H12.7055V16.9219H16.6922C17.5969 16.9219 18.3328 16.1859 18.3328 15.2812V14.1094H21.1453V23.25C21.1453 23.6381 21.4603 23.9531 21.8484 23.9531C22.2366 23.9531 22.5516 23.6381 22.5516 23.25V14.1094H23.2969C23.685 14.1094 24 13.7944 24 13.4062V10.5938C24 10.2056 23.685 9.89062 23.2969 9.89062ZM8.48672 2.875C8.48672 2.61672 8.69719 2.40625 8.95547 2.40625H15.0492C15.3075 2.40625 15.518 2.61672 15.518 2.875V9.89062H8.48672V2.875ZM16.9266 15.2812C16.9266 15.4106 16.8216 15.5156 16.6922 15.5156H7.31719C7.18781 15.5156 7.08281 15.4106 7.08281 15.2812V14.1094H16.9266V15.2812ZM22.5938 12.7031H1.40625V11.2969H22.5938V12.7031Z" fill="currentColor"/>
</svg>
