<svg xmlns="http://www.w3.org/2000/svg" width="24" height="24" viewBox="0 0 24 24" fill="none">
  <path d="M20.6153 0.000244141H3.07703C1.93188 0.000244141 1 0.932119 1 2.07728V21.9232C1 23.0684 1.93188 24.0002 3.07703 24.0002H20.6153C21.7605 24.0002 22.6923 23.0684 22.6923 21.9232V2.07728C22.6923 0.932119 21.7605 0.000244141 20.6153 0.000244141ZM2.38469 2.07728C2.38469 1.69571 2.695 1.38493 3.07703 1.38493H20.6153C20.9969 1.38493 21.3077 1.69524 21.3077 2.07728V4.84618H2.38469V2.07728ZM21.3077 21.9232C21.3077 22.3048 20.9973 22.6156 20.6153 22.6156H3.07703C2.69547 22.6156 2.38469 22.3052 2.38469 21.9232V6.23087H21.3077V21.9232Z" fill="currentColor"/>
  <circle cx="12.0273" cy="14.4279" r="5.75" transform="rotate(0.241126 12.0273 14.4279)" stroke="currentColor" stroke-width="1.5"/>
  <path d="M10.5557 11.593C10.8291 11.3707 11.2319 11.4132 11.4541 11.6877C11.6482 11.9279 11.6402 12.2656 11.4512 12.4944L11.3594 12.5852C11.0036 12.8731 10.8379 13.0991 10.8301 13.3733C10.8221 13.6535 10.9775 13.9984 11.3125 14.5256L11.458 14.7747C11.7649 15.3519 11.8386 15.8981 11.667 16.3958C11.4001 17.1691 10.6593 17.4522 10.5752 17.4827V17.4836C10.5037 17.5092 10.4318 17.5198 10.3604 17.5198C10.0974 17.5198 9.85205 17.3578 9.75879 17.0959C9.64167 16.768 9.80995 16.4086 10.1338 16.2854H10.1348L10.1377 16.2834C10.1388 16.2828 10.1401 16.2827 10.1406 16.2825L10.1445 16.2805C10.1463 16.2797 10.1499 16.2782 10.1533 16.2766C10.1602 16.2734 10.1704 16.2684 10.1826 16.262C10.2076 16.2487 10.2421 16.2287 10.2783 16.2024C10.3519 16.1489 10.4283 16.0724 10.46 15.9758L10.4619 15.967C10.4854 15.8869 10.4827 15.7824 10.4463 15.6555C10.4087 15.5246 10.3379 15.3743 10.2344 15.2112C9.99269 14.8316 9.63986 14.2772 9.56445 13.6428C9.4884 13.0028 9.69536 12.2888 10.5557 11.593ZM10.1699 16.3225C10.1768 16.3193 10.187 16.3124 10.2012 16.3049C10.196 16.299 10.1915 16.2925 10.1855 16.2883L10.1631 16.2776L10.1699 16.3225Z" fill="currentColor" stroke="currentColor" stroke-width="0.1"/>
  <path d="M13.4561 11.593C13.7295 11.3707 14.1323 11.4132 14.3545 11.6877C14.5486 11.9279 14.5406 12.2656 14.3516 12.4944L14.2598 12.5852C13.904 12.8731 13.7383 13.0991 13.7305 13.3733C13.7225 13.6535 13.8779 13.9984 14.2129 14.5256L14.3584 14.7747C14.6653 15.3519 14.739 15.8981 14.5674 16.3958C14.3005 17.1691 13.5597 17.4522 13.4756 17.4827V17.4836C13.4041 17.5092 13.3322 17.5198 13.2607 17.5198C12.9978 17.5198 12.7524 17.3578 12.6592 17.0959C12.5421 16.768 12.7103 16.4086 13.0342 16.2854H13.0352L13.0381 16.2834C13.0392 16.2828 13.0405 16.2827 13.041 16.2825L13.0449 16.2805C13.0467 16.2797 13.0503 16.2782 13.0537 16.2766C13.0606 16.2734 13.0708 16.2684 13.083 16.262C13.108 16.2487 13.1425 16.2287 13.1787 16.2024C13.2523 16.1489 13.3287 16.0724 13.3604 15.9758L13.3623 15.967C13.3857 15.8869 13.3831 15.7824 13.3467 15.6555C13.3091 15.5246 13.2383 15.3743 13.1348 15.2112C12.8931 14.8316 12.5403 14.2772 12.4648 13.6428C12.3888 13.0028 12.5958 12.2888 13.4561 11.593ZM13.0703 16.3225C13.0772 16.3193 13.0874 16.3124 13.1016 16.3049C13.0964 16.299 13.0919 16.2925 13.0859 16.2883L13.0635 16.2776L13.0703 16.3225Z" fill="currentColor" stroke="currentColor" stroke-width="0.1"/>
</svg>
