<svg xmlns="http://www.w3.org/2000/svg" width="24" height="24" viewBox="0 0 24 24" fill="none">
  <path d="M13.6133 23.7893H13.6143H13.6133ZM12.3037 1.85571C13.508 3.05637 14.6979 4.07145 15.8457 5.04419V5.04321C18.9937 7.71722 21.5937 9.9426 21.5938 13.9182C21.5981 19.2043 17.3981 23.5364 12.1143 23.6956L12.1055 23.6965C12.0131 23.7021 11.4034 23.6876 11.1885 23.6721L11.1826 23.6711C10.6961 23.6465 10.2114 23.588 9.7334 23.4954L9.25781 23.3909C4.95354 22.2706 1.96149 18.366 2 13.9182V13.9163C2.00007 10.9395 3.32169 9.0808 5.35938 7.16821L6.22852 6.35083L6.52734 7.50513C6.68803 8.13552 6.94987 8.73576 7.30273 9.28247L7.62793 9.7854L7.75684 9.20142C8.19675 7.22002 9.2031 3.96295 11.3047 1.85571L11.3057 1.85474L11.7988 1.35474L12.3037 1.85571ZM18.6797 21.2356C17.6466 22.2056 16.4071 22.9595 15.0322 23.4241H15.0312C15.184 23.3725 15.3351 23.3177 15.4844 23.259C15.7834 23.1416 16.0753 23.01 16.3594 22.8655C16.9268 22.5769 17.4626 22.2357 17.9609 21.8489C18.2101 21.6555 18.4502 21.4511 18.6797 21.2356ZM5.19238 21.5305C5.39749 21.708 5.61016 21.8775 5.83008 22.0383C5.72025 21.958 5.61204 21.8758 5.50586 21.7913L5.19238 21.5305ZM11.624 14.4153C11.2042 14.804 10.8039 15.1442 10.4326 15.4602C9.70288 16.0815 9.14948 16.5646 8.7832 17.05C8.4051 17.5513 8.22365 18.0579 8.22363 18.72V18.7209C8.22859 20.6455 9.75906 22.2195 11.6826 22.2786H11.6885C11.7922 22.2795 11.8926 22.2792 12.0039 22.2698L12.0029 22.2688C13.8854 22.1597 15.3579 20.604 15.3613 18.718V18.717C15.3612 17.3577 14.4787 16.5721 13.0225 15.3362H13.0234C12.6889 15.0511 12.3301 14.7477 11.9619 14.4133L11.792 14.259L11.624 14.4153ZM11.2012 21.9768C11.3606 22.0055 11.5238 22.0235 11.6904 22.0286L11.5234 22.0198C11.4143 22.011 11.307 21.9958 11.2012 21.9768ZM10.9229 21.9133C10.9122 21.9104 10.9013 21.9085 10.8906 21.9055C10.9013 21.9085 10.9122 21.9104 10.9229 21.9133ZM12.9229 21.8293C12.8626 21.8511 12.8011 21.8697 12.7393 21.8879C12.8011 21.8696 12.8626 21.8511 12.9229 21.8293ZM10.626 21.8186C10.6162 21.8149 10.6064 21.8116 10.5967 21.8079C10.6064 21.8116 10.6162 21.8149 10.626 21.8186ZM10.3428 21.6965C10.3337 21.6921 10.3244 21.6883 10.3154 21.6838C10.3244 21.6883 10.3337 21.6921 10.3428 21.6965ZM10.1084 21.5696C10.0608 21.5415 10.0148 21.5111 9.96875 21.4807C10.0148 21.5111 10.0608 21.5415 10.1084 21.5696ZM9.84766 21.3987C9.80437 21.3673 9.76237 21.3344 9.7207 21.301C9.76238 21.3344 9.80436 21.3673 9.84766 21.3987ZM9.6123 21.2122C9.56333 21.1694 9.51707 21.1239 9.4707 21.0784C9.51708 21.1239 9.56332 21.1694 9.6123 21.2122ZM11.6455 3.60083C10.3517 5.46584 9.47139 7.58593 9.06445 9.8186C8.9393 10.4005 8.48664 10.857 7.90527 10.9866L7.90234 10.9875C7.33149 11.1208 6.73489 10.9019 6.38574 10.4309L6.38477 10.4299L6.19238 10.1604C6.00663 9.88681 5.83981 9.59979 5.69336 9.30298L5.53711 8.98657L5.29102 9.2395C4.07275 10.4863 3.39763 12.1646 3.41309 13.9075C3.40067 16.5293 4.61497 19.007 6.69434 20.6038L7.35645 21.1125L7.08203 20.3235C6.90311 19.808 6.8114 19.2658 6.80957 18.72C6.80957 16.7018 8.00726 15.6683 9.5166 14.384C10.0505 13.9295 10.6644 13.4071 11.292 12.7805L11.791 12.2805L12.292 12.7805C12.8489 13.3378 13.4068 13.8105 13.9385 14.261C15.4555 15.5492 16.7744 16.6858 16.7744 18.72L16.7705 18.9163C16.753 19.3484 16.6766 19.7763 16.5479 20.1897L16.0488 20.5754H16.4238L16.293 20.9729L16.9072 20.5452L16.9268 20.5315L17.2715 20.2913L17.2383 20.2737C19.0988 18.6917 20.1787 16.3688 20.1738 13.9133C20.1734 10.5571 17.8942 8.64582 14.9219 6.12134C14.0195 5.3547 13.0256 4.51225 12.0225 3.56177L11.8115 3.36157L11.6455 3.60083ZM9.39355 21.0032C9.35212 20.9598 9.31346 20.914 9.27441 20.8684C9.31348 20.914 9.35211 20.9598 9.39355 21.0032ZM9.18164 20.7581C9.15202 20.7203 9.12467 20.6809 9.09668 20.6418C9.12468 20.6809 9.15201 20.7203 9.18164 20.7581ZM14.7373 20.2415C14.6642 20.3816 14.579 20.5143 14.4873 20.6418C14.5192 20.5975 14.5523 20.554 14.582 20.5081L14.7373 20.2415ZM8.99805 20.5002C8.97829 20.4694 8.96114 20.437 8.94238 20.4055C8.96115 20.437 8.97828 20.4694 8.99805 20.5002ZM6.84668 20.4055C6.72351 20.3109 6.60414 20.2124 6.4873 20.1116C6.60412 20.2123 6.72353 20.311 6.84668 20.4055ZM16.8594 20.012C16.8311 20.1221 16.8002 20.2319 16.7646 20.3401C16.8002 20.2318 16.8311 20.1222 16.8594 20.012ZM8.8418 20.2317C8.83753 20.2234 8.83428 20.2146 8.83008 20.2063C8.83428 20.2146 8.83752 20.2234 8.8418 20.2317ZM19.9287 19.8196H19.9297H19.9287ZM17.123 20.0452C17.119 20.0486 17.1153 20.0525 17.1113 20.0559C17.1153 20.0525 17.119 20.0486 17.123 20.0452ZM6.37402 20.009C6.30026 19.9429 6.22634 19.8773 6.15527 19.8088C6.22634 19.8773 6.30026 19.9429 6.37402 20.009ZM17.4648 19.7336C17.4167 19.7802 17.3658 19.8239 17.3164 19.8694C17.3658 19.8239 17.4167 19.7802 17.4648 19.7336ZM5.9668 19.6174C5.92473 19.5741 5.88184 19.5317 5.84082 19.4875C5.88184 19.5317 5.92473 19.5741 5.9668 19.6174ZM17.7832 19.4075C17.7277 19.4677 17.6698 19.5256 17.6123 19.5842C17.6698 19.5256 17.7277 19.4677 17.7832 19.4075ZM5.66797 19.2932C5.62138 19.2397 5.5744 19.1867 5.5293 19.1321C5.5744 19.1867 5.62138 19.2397 5.66797 19.2932ZM18.0781 19.0676C18.023 19.1346 17.9656 19.1997 17.9082 19.2649C17.9656 19.1996 18.023 19.1346 18.0781 19.0676ZM6.56445 18.9348C6.56899 19.0364 6.57837 19.1375 6.58887 19.2385C6.58576 19.2086 6.58169 19.1787 6.5791 19.1487L6.56445 18.9348ZM5.3916 18.9583C5.34555 18.8993 5.29924 18.8406 5.25488 18.7805C5.29924 18.8406 5.34555 18.8993 5.3916 18.9583ZM18.3564 18.7083C18.3004 18.7846 18.2424 18.8594 18.1836 18.9338C18.2424 18.8594 18.3004 18.7846 18.3564 18.7083ZM6.60547 18.0491C6.59052 18.1556 6.57891 18.2649 6.57129 18.3772L6.57031 18.387C6.57792 18.2712 6.59009 18.1587 6.60547 18.0491ZM15.1025 18.4993C15.1082 18.5701 15.1113 18.6426 15.1113 18.717C15.1113 18.6426 15.1082 18.5701 15.1025 18.4993ZM8.47559 18.6643C8.47647 18.6118 8.47705 18.5604 8.48047 18.51C8.47704 18.5604 8.47647 18.6118 8.47559 18.6643ZM5.10938 18.5745C5.07594 18.5261 5.04212 18.478 5.00977 18.429C5.04212 18.478 5.07594 18.5261 5.10938 18.5745ZM18.5967 18.3625C18.553 18.4291 18.5076 18.4945 18.4619 18.5598C18.5076 18.4945 18.553 18.4291 18.5967 18.3625ZM8.48926 18.429C8.4933 18.3876 8.49707 18.3469 8.50293 18.3069C8.49707 18.3469 8.4933 18.3876 8.48926 18.429ZM15.0762 18.2913C15.0838 18.3365 15.0897 18.3824 15.0947 18.429C15.0897 18.3824 15.0838 18.3365 15.0762 18.2913ZM15.0342 18.094C15.0472 18.144 15.0577 18.1948 15.0674 18.2463C15.0577 18.1948 15.0472 18.144 15.0342 18.094ZM8.51367 18.2415C8.51995 18.2055 8.52734 18.1701 8.53516 18.135C8.52733 18.1701 8.51996 18.2055 8.51367 18.2415ZM4.87305 18.2122C4.836 18.1519 4.79912 18.0917 4.76367 18.0305C4.79912 18.0917 4.836 18.1519 4.87305 18.2122ZM18.8301 17.9856C18.7952 18.0457 18.7591 18.1051 18.7227 18.1643C18.7591 18.1051 18.7952 18.0457 18.8301 17.9856ZM8.55859 18.0383C8.56704 18.0071 8.57619 17.9762 8.58594 17.9456C8.57617 17.9762 8.56705 18.0071 8.55859 18.0383ZM14.9824 17.926C14.9943 17.9606 15.0054 17.9953 15.0156 18.0305C15.0054 17.9953 14.9943 17.9606 14.9824 17.926ZM8.6084 17.8782C8.62384 17.8346 8.64099 17.7918 8.65918 17.7493C8.64097 17.7918 8.62386 17.8346 8.6084 17.8782ZM4.65527 17.8362C4.61519 17.7625 4.57587 17.6884 4.53809 17.6135C4.57587 17.6884 4.61518 17.7625 4.65527 17.8362ZM14.9082 17.7375C14.9228 17.7703 14.9372 17.803 14.9502 17.8362C14.9372 17.803 14.9228 17.7703 14.9082 17.7375ZM19.0508 17.5793C19.0156 17.6487 18.9785 17.717 18.9414 17.7854C18.9785 17.717 19.0156 17.6487 19.0508 17.5793ZM8.67871 17.7014C8.69498 17.6657 8.71416 17.6312 8.73242 17.5959C8.71414 17.6312 8.695 17.6657 8.67871 17.7014ZM14.8281 17.5754C14.8422 17.6016 14.8571 17.6271 14.8701 17.6536C14.8571 17.6271 14.8422 17.6016 14.8281 17.5754ZM4.45703 17.4475C4.42038 17.3706 4.38481 17.2932 4.35059 17.2151C4.38482 17.2932 4.42038 17.3706 4.45703 17.4475ZM14.5518 17.1487C14.5948 17.2047 14.6357 17.2605 14.6738 17.3167C14.6357 17.2604 14.5947 17.2048 14.5518 17.1487ZM19.2402 17.177C19.2072 17.2521 19.173 17.3266 19.1377 17.4006C19.1729 17.3266 19.2072 17.2521 19.2402 17.177ZM8.90039 17.3167C8.9235 17.283 8.94661 17.2487 8.97168 17.2151C8.9466 17.2487 8.92351 17.283 8.90039 17.3167ZM9.04883 17.1174C9.06815 17.0933 9.08708 17.0684 9.10742 17.0442C9.08707 17.0684 9.06816 17.0933 9.04883 17.1174ZM4.26367 17.009C4.23893 16.9481 4.21468 16.887 4.19141 16.8254C4.21468 16.887 4.23893 16.9481 4.26367 17.009ZM14.4111 16.9749C14.4208 16.9862 14.43 16.9977 14.4395 17.009C14.43 16.9977 14.4208 16.9862 14.4111 16.9749ZM9.16797 16.9749C9.19911 16.9393 9.2313 16.9035 9.26465 16.8674C9.23129 16.9035 9.19912 16.9393 9.16797 16.9749ZM19.4062 16.7698C19.3804 16.8385 19.3538 16.9069 19.3262 16.9749C19.3538 16.9069 19.3804 16.8385 19.4062 16.7698ZM14.2412 16.7854C14.2669 16.8128 14.2919 16.8402 14.3164 16.8674C14.2919 16.8402 14.2669 16.8128 14.2412 16.7854ZM9.32129 16.8069C9.34556 16.7814 9.37014 16.7555 9.39551 16.7297C9.37013 16.7555 9.34557 16.7814 9.32129 16.8069ZM14.0947 16.634C14.1246 16.6642 14.154 16.694 14.1826 16.7239C14.154 16.694 14.1246 16.6642 14.0947 16.634ZM4.10645 16.5911C4.07712 16.5057 4.04993 16.4196 4.02344 16.3333C4.04993 16.4196 4.07712 16.5057 4.10645 16.5911ZM19.5557 16.3333C19.5304 16.4143 19.5053 16.4953 19.4775 16.5754C19.5053 16.4953 19.5304 16.4143 19.5557 16.3333ZM10.5957 15.6506C10.4116 15.8073 10.2398 15.9532 10.0811 16.092L10.5947 15.6506L11.1748 15.1536C10.9745 15.3279 10.7811 15.4928 10.5957 15.6506ZM13.5557 16.1292C13.6368 16.2014 13.7161 16.2707 13.791 16.3401C13.7161 16.2707 13.6368 16.2014 13.5557 16.1292ZM3.97754 16.1819C3.94809 16.0788 3.92187 15.9748 3.89648 15.8704C3.92188 15.9748 3.94809 16.0788 3.97754 16.1819ZM19.6777 15.8987C19.6569 15.9814 19.6357 16.0639 19.6123 16.1458C19.6357 16.0639 19.6569 15.9814 19.6777 15.8987ZM3.86426 15.7444C3.84574 15.6626 3.83144 15.5798 3.81543 15.4973C3.83144 15.5798 3.84574 15.6626 3.86426 15.7444ZM19.7676 15.4973C19.7546 15.5628 19.7431 15.6285 19.7285 15.6936C19.7431 15.6285 19.7546 15.5628 19.7676 15.4973ZM3.77246 15.2756C3.76159 15.2099 3.75439 15.1435 3.74512 15.0774C3.75439 15.1435 3.76159 15.2099 3.77246 15.2756ZM19.8457 15.0315C19.8351 15.1085 19.8253 15.1855 19.8125 15.262C19.8253 15.1855 19.8351 15.1085 19.8457 15.0315ZM21.8125 13.1682C21.8331 13.4115 21.8447 13.6613 21.8447 13.9182C21.845 14.2569 21.8275 14.5919 21.7949 14.9221C21.8275 14.5918 21.844 14.2569 21.8438 13.9182C21.8437 13.6613 21.8331 13.4115 21.8125 13.1682ZM1.75391 14.1936C1.75741 14.3786 1.76472 14.5625 1.77832 14.7454C1.76473 14.5625 1.75741 14.3786 1.75391 14.1936ZM13.291 13.3743C13.5635 13.6158 13.8345 13.845 14.1006 14.0706C14.207 14.1609 14.3119 14.252 14.417 14.342C14.3118 14.2519 14.2061 14.161 14.0996 14.0706C13.8336 13.8451 13.5634 13.6157 13.291 13.3743ZM10.1475 13.5071C9.92329 13.7056 9.70611 13.8931 9.49805 14.0706C9.70613 13.8931 9.92328 13.7056 10.1475 13.5071ZM19.9014 13.3586C19.9041 13.3923 19.906 13.4262 19.9082 13.4602C19.906 13.4262 19.9041 13.3923 19.9014 13.3586ZM10.5898 13.1077C10.4734 13.2158 10.358 13.3204 10.2441 13.4221C10.358 13.3204 10.4734 13.2158 10.5898 13.1077ZM19.8721 13.0813C19.8767 13.1182 19.8807 13.1553 19.8848 13.1926C19.8807 13.1553 19.8767 13.1182 19.8721 13.0813ZM19.833 12.8196C19.8416 12.8704 19.85 12.9214 19.8574 12.9729C19.85 12.9214 19.8417 12.8704 19.833 12.8196ZM19.7891 12.5911C19.7974 12.6309 19.8059 12.6709 19.8135 12.7112C19.8059 12.6709 19.7974 12.6309 19.7891 12.5911ZM21.6543 12.1165H21.6553H21.6543ZM19.7344 12.3518C19.7416 12.3804 19.749 12.409 19.7559 12.4377C19.749 12.409 19.7416 12.3804 19.7344 12.3518ZM19.543 11.7366C19.5665 11.7994 19.5879 11.8631 19.6094 11.927C19.5879 11.8631 19.5665 11.7994 19.543 11.7366ZM19.4424 11.4875C19.47 11.5526 19.4971 11.6178 19.5225 11.6838C19.4971 11.6178 19.47 11.5526 19.4424 11.4875ZM21.373 11.1428H21.3721H21.373ZM19.2197 11.0178C19.2462 11.0683 19.2718 11.1191 19.2969 11.1702C19.2718 11.1191 19.2462 11.0683 19.2197 11.0178ZM19.1035 10.8059C19.1359 10.8626 19.1676 10.9195 19.1982 10.9768C19.1676 10.9195 19.1359 10.8626 19.1035 10.8059ZM9.24023 10.1116C9.23413 10.1282 9.22631 10.1441 9.21973 10.1604C9.2273 10.1416 9.23524 10.1229 9.24219 10.1038L9.24023 10.1116ZM5.05469 9.88208V9.88306V9.88208ZM9.69727 8.23853C9.53995 8.77169 9.41162 9.31432 9.31152 9.86353L9.2793 9.9895L9.31055 9.86353C9.41066 9.31424 9.53989 8.77178 9.69727 8.23853ZM5.46973 9.41333C5.56677 9.61 5.67325 9.8021 5.78711 9.9895C5.6732 9.80226 5.56675 9.60996 5.46973 9.41333ZM18.4932 9.89575C18.5029 9.90847 18.5128 9.9211 18.5225 9.93384C18.5128 9.92111 18.5029 9.90846 18.4932 9.89575ZM17.7637 9.04419C17.8378 9.12328 17.9096 9.20308 17.9805 9.28247C17.9096 9.20309 17.8378 9.12327 17.7637 9.04419ZM17.3711 8.63989C17.4488 8.71727 17.5248 8.79492 17.5996 8.87231C17.5248 8.79493 17.4488 8.71726 17.3711 8.63989ZM7.16992 8.53638C7.22361 8.64706 7.28203 8.7554 7.34277 8.86255C7.32041 8.82309 7.2968 8.78434 7.27539 8.74438L7.16992 8.53638ZM16.8809 8.16724C16.9896 8.26879 17.0961 8.36987 17.2002 8.47095C17.0961 8.36988 16.9896 8.26878 16.8809 8.16724ZM15.8428 7.23657C16.165 7.51601 16.4735 7.79011 16.7666 8.06079C16.6307 7.93535 16.492 7.80883 16.3496 7.68188L15.8428 7.23657ZM10.5938 5.90649L10.5928 5.90747L10.5938 5.90649ZM10.7441 2.09009C10.4584 2.41493 10.1953 2.76033 9.95215 3.11841C10.2471 2.68396 10.5715 2.26831 10.9297 1.88501L10.7441 2.09009ZM12.4805 1.67798C12.623 1.82008 12.7651 1.95978 12.9072 2.09692C12.765 1.95969 12.6221 1.82018 12.4795 1.67798L11.7979 1.00024L12.4805 1.67798ZM19.3467 11.2727C19.374 11.3309 19.4002 11.3895 19.4258 11.4485C19.4002 11.3895 19.374 11.3309 19.3467 11.2727ZM19.0029 10.637C19.0273 10.677 19.0517 10.7168 19.0752 10.7571C19.0517 10.7168 19.0273 10.677 19.0029 10.637Z" fill="currentColor"/>
</svg>
