<svg xmlns="http://www.w3.org/2000/svg" width="26" height="24" viewBox="0 0 26 24" fill="none">
  <path d="M7.54492 4.2002C9.41178 4.2002 10.9179 5.71926 10.918 7.59961C10.918 9.48005 9.41184 11 7.54492 11C5.67813 10.9999 4.17285 9.47996 4.17285 7.59961C4.17296 5.71934 5.67819 4.20034 7.54492 4.2002ZM7.54492 5.5C6.40112 5.50015 5.463 6.44423 5.46289 7.59961C5.46289 8.75508 6.40105 9.70005 7.54492 9.7002C8.68891 9.7002 9.62695 8.75516 9.62695 7.59961C9.62685 6.44414 8.68885 5.5 7.54492 5.5Z" fill="currentColor" stroke="currentColor" stroke-width="0.2"/>
  <path d="M23.374 8.58984C23.9539 8.64724 24.4991 8.91114 24.9082 9.33496L24.9092 9.33594C25.1527 9.59445 25.1527 9.99539 24.9092 10.2539L24.9062 10.2578C24.6495 10.5038 24.25 10.5037 23.9932 10.2578L23.9912 10.2559C23.8104 10.0736 23.5909 9.95237 23.3418 9.90039C23.2097 9.90168 23.1214 9.92599 23.0371 9.97559C22.945 10.0299 22.8526 10.117 22.7148 10.2559C22.3361 10.7252 21.7655 11 21.1709 11H21.1611C20.5811 10.9426 20.0351 10.6789 19.626 10.2549V10.2539C19.3819 10.0059 19.382 9.6039 19.627 9.35645C19.8744 9.09538 20.2863 9.09817 20.542 9.34277L20.5439 9.34473C20.7244 9.52673 20.9437 9.64712 21.1924 9.69922C21.3251 9.69802 21.4135 9.6748 21.498 9.625C21.544 9.5979 21.5899 9.56235 21.6416 9.5166L21.8203 9.34473C22.1777 8.90205 22.7058 8.63547 23.2637 8.60645V8.5791L23.374 8.58984Z" fill="currentColor" stroke="currentColor" stroke-width="0.2"/>
  <path d="M23.3848 4.2002L23.6006 4.23145C24.099 4.32618 24.5611 4.57451 24.9189 4.94531L24.9199 4.94629C25.1635 5.2048 25.1635 5.60574 24.9199 5.86426L24.917 5.86816C24.6602 6.11414 24.2608 6.114 24.0039 5.86816L24 5.86426C23.8199 5.67262 23.6013 5.55192 23.3525 5.5C23.2203 5.50129 23.1322 5.52555 23.0479 5.5752C22.9558 5.62946 22.8633 5.71658 22.7256 5.85547C22.3468 6.32468 21.7762 6.59961 21.1816 6.59961H21.1719C20.5919 6.54224 20.0458 6.27848 19.6367 5.85449V5.85352C19.3924 5.60542 19.3924 5.20254 19.6377 4.95508C19.8852 4.69435 20.2972 4.69778 20.5527 4.94238L20.5547 4.94434C20.7352 5.12636 20.9544 5.24673 21.2031 5.29883C21.3358 5.29763 21.4243 5.27436 21.5088 5.22461C21.6009 5.17034 21.6933 5.08322 21.8311 4.94434C22.2098 4.47509 22.7804 4.2002 23.375 4.2002H23.3848Z" fill="currentColor" stroke="currentColor" stroke-width="0.2"/>
  <path d="M7.54688 0.900391C9.07665 0.922585 10.5842 1.26625 11.9707 1.89844L12.3242 2.04688C14.0985 2.76624 15.9985 3.12009 17.9082 3.09961H17.9092C18.2706 3.09966 18.5547 3.38759 18.5547 3.75V11.4502C18.5546 11.8125 18.2705 12.0996 17.9092 12.0996H17.9082C15.8712 12.0778 13.8448 12.4825 11.9707 13.3018L11.9668 13.3037C11.6168 13.4386 11.2666 13.5624 10.918 13.6865V16.1475C10.9178 16.3828 10.7884 16.5895 10.5977 16.7051L10.4248 16.8203C10.2617 16.9461 10.1212 17.1073 10.0215 17.2852C9.61185 18.0189 9.86894 18.9587 10.5947 19.3711C10.8016 19.4884 10.9179 19.6981 10.918 19.9307V22.4395C10.9178 22.7564 10.7007 23.0162 10.4043 23.0762L10.2725 23.0889H10.1533L10.1436 23.0869L8.20215 22.6914C5.86421 22.2199 4.17294 20.1433 4.17285 17.7422V13.3643C2.1424 12.1622 0.900391 9.95831 0.900391 7.58887C0.900462 3.89327 3.87924 0.900391 7.5459 0.900391H7.54688ZM5.46387 17.7422C5.46396 19.521 6.71806 21.0636 8.44922 21.417L9.62695 21.6562V20.2861C9.42716 20.1312 9.23818 19.9403 9.08984 19.7373V19.7363C8.17392 18.4963 8.41925 16.757 9.62695 15.8145V14.0615C8.94774 14.2196 8.24204 14.2998 7.5459 14.2998C6.8395 14.2998 6.13347 14.1805 5.46387 13.9541V17.7422ZM7.54395 2.2002C4.58987 2.20102 2.19064 4.61874 2.19043 7.59961C2.19043 10.5807 4.58974 12.9982 7.54395 12.999C8.90459 12.9772 10.2545 12.6736 11.4961 12.0967L11.498 12.0957C13.3238 11.3005 15.2772 10.8693 17.2637 10.8135V4.38477C15.2769 4.32854 13.3241 3.88851 11.499 3.10449H11.4971V3.10352C10.2546 2.537 8.90412 2.22198 7.54395 2.2002Z" fill="currentColor" stroke="currentColor" stroke-width="0.2"/>
</svg>
