<svg xmlns="http://www.w3.org/2000/svg" width="24" height="24" viewBox="0 0 24 24" fill="none">
  <path fill-rule="evenodd" clip-rule="evenodd" d="M19.907 9.67436V8.27902C19.907 4.81117 17.0958 2 13.628 2H10.372C6.90419 2 4.09302 4.81117 4.09302 8.27902V9.67436C4.09302 10.0594 4.40566 10.372 4.79069 10.372C5.17571 10.372 5.48836 10.0594 5.48836 9.67436V8.27902C5.48836 5.5821 7.67511 3.39534 10.372 3.39534H13.628C16.3249 3.39534 18.5117 5.5821 18.5117 8.27902V9.67436C18.5117 10.0594 18.8243 10.372 19.2093 10.372C19.5944 10.372 19.907 10.0594 19.907 9.67436Z" fill="currentColor"/>
  <path fill-rule="evenodd" clip-rule="evenodd" d="M4.79068 18.2787C6.33209 18.2787 7.58135 17.0294 7.58135 15.488V12.2321C7.58135 10.6907 6.33209 9.44141 4.79068 9.44141C3.24926 9.44141 2 10.6911 2 12.2325V15.4885C2 17.0299 3.24926 18.2791 4.79068 18.2791V18.2787ZM4.79068 16.8834C4.02062 16.8834 3.39534 16.2581 3.39534 15.488V12.2321C3.39534 11.462 4.02062 10.8367 4.79068 10.8367C5.56073 10.8367 6.18602 11.462 6.18602 12.2321V15.488C6.18602 16.2581 5.56073 16.8834 4.79068 16.8834Z" fill="currentColor"/>
  <path fill-rule="evenodd" clip-rule="evenodd" d="M19.2094 18.2787C20.7508 18.2787 22.0001 17.0294 22.0001 15.488V12.2321C22.0001 10.6907 20.7508 9.44141 19.2094 9.44141C17.668 9.44141 16.4187 10.6907 16.4187 12.2321V15.488C16.4187 17.0294 17.668 18.2787 19.2094 18.2787ZM19.2094 16.8834C18.4393 16.8834 17.814 16.2581 17.814 15.488V12.2321C17.814 11.462 18.4393 10.8367 19.2094 10.8367C19.9794 10.8367 20.6047 11.462 20.6047 12.2321V15.488C20.6047 16.2581 19.9794 16.8834 19.2094 16.8834Z" fill="currentColor"/>
  <path fill-rule="evenodd" clip-rule="evenodd" d="M18.5117 18.0477C18.5117 18.7258 18.2418 19.3759 17.763 19.8551C17.2842 20.3343 16.6336 20.6038 15.9556 20.6038H10.8373C10.4523 20.6038 10.1396 20.9164 10.1396 21.3015C10.1396 21.6865 10.4523 21.9991 10.8373 21.9991H15.9556C17.0038 21.9991 18.0085 21.5823 18.7502 20.8419C19.4906 20.1006 19.9075 19.096 19.9075 18.0473C19.9075 17.6623 19.5948 17.3496 19.2098 17.3496C18.8248 17.3496 18.5121 17.6623 18.5121 18.0473L18.5117 18.0477Z" fill="currentColor"/>
</svg>
