<svg xmlns="http://www.w3.org/2000/svg" width="24" height="24" viewBox="0 0 24 24" fill="none">
  <path d="M23.283 22.4146C22.7511 22.4146 22.3198 21.9819 22.3198 21.45V14.1426C22.3198 12.6992 21.1682 11.4845 19.7536 11.4356C19.0262 11.4112 18.3333 11.6742 17.8085 12.1803C17.2838 12.6863 16.9949 13.3677 16.9949 14.0909L16.9402 21.4672C16.9402 22.0725 16.4471 22.5656 15.8419 22.5656C15.2367 22.5656 14.7436 22.0725 14.7436 21.4672V13.6653C14.7436 12.4347 13.743 11.4342 12.5124 11.4342C11.2818 11.4342 10.2827 12.4347 10.2827 13.6624L10.2582 21.4658C10.2582 22.071 9.76511 22.5641 9.15988 22.5641C8.55464 22.5641 8.06154 22.071 8.06154 21.46L8.00692 14.0937C8.00692 13.3649 7.71796 12.6834 7.19323 12.1774C6.6685 11.6714 5.97413 11.4083 5.24814 11.4327C3.83353 11.483 2.682 12.6978 2.682 14.1397V21.4471C2.682 21.979 2.24928 22.4117 1.71881 22.4117C1.32202 22.4117 1 22.7338 1 23.1306C1 23.5273 1.32202 23.8494 1.71881 23.8494C3.04285 23.8494 4.11962 22.7726 4.11962 21.4471V14.1397C4.11962 13.4612 4.64866 12.8919 5.29846 12.8689C5.63342 12.8559 5.95257 12.9781 6.19409 13.211C6.43561 13.4439 6.56787 13.7573 6.56787 14.098L6.6225 21.4644C6.6225 22.8632 7.75965 24.0003 9.15844 24.0003C10.5572 24.0003 11.6944 22.8632 11.6944 21.4658L11.7188 13.6624C11.7188 13.2254 12.0739 12.8689 12.511 12.8689C12.948 12.8689 13.3045 13.2254 13.3045 13.6624V21.4644C13.3045 22.8632 14.4417 24.0003 15.8405 24.0003C17.2393 24.0003 18.3764 22.8632 18.3764 21.4701L18.431 14.0937C18.431 13.7588 18.5647 13.4454 18.8062 13.211C19.0478 12.9781 19.3626 12.8559 19.7019 12.8689C20.3517 12.8919 20.8807 13.4626 20.8807 14.1397V21.4471C20.8807 22.7712 21.9575 23.8494 23.2815 23.8494C23.6783 23.8494 24.0003 23.5273 24.0003 23.1306C24.0003 22.7338 23.6783 22.4117 23.2815 22.4117L23.283 22.4146Z" fill="currentColor"/>
  <path d="M17.6537 7.54633C17.5632 7.82235 17.2512 7.95605 17.2526 7.95605C16.8803 8.0955 16.692 8.50953 16.8314 8.88187C16.9392 9.17083 17.2138 9.34909 17.5042 9.34909C17.5876 9.34909 17.6739 9.33472 17.7558 9.30309C17.8507 9.26715 18.6974 8.92787 19.0094 8.02505C19.2409 7.35513 19.1072 6.60469 18.6141 5.79532C17.8766 4.58485 17.7917 4.08744 18.696 3.32694C18.9993 3.07105 19.0382 2.6182 18.7837 2.31343C18.5278 2.01009 18.075 1.96984 17.7716 2.22573C15.7791 3.90199 16.8257 5.61993 17.3878 6.54288C17.5646 6.83184 17.7544 7.24155 17.6537 7.54633Z" fill="currentColor"/>
  <path d="M12.3149 6.48563C12.2257 6.75734 11.8922 6.89535 11.8937 6.89535C11.5199 7.02905 11.3244 7.4402 11.4581 7.81398C11.563 8.10869 11.839 8.29127 12.1352 8.29127C12.2157 8.29127 12.2962 8.27833 12.3767 8.24958C12.4759 8.21364 13.3571 7.8758 13.6734 6.9586C13.9049 6.28724 13.7611 5.53537 13.2464 4.72743C12.4299 3.44221 12.4428 2.98505 13.3169 2.27774C13.626 2.02904 13.6734 1.57619 13.4233 1.2671C13.1731 0.958016 12.7203 0.910575 12.4126 1.16072C10.3396 2.83697 11.4408 4.56929 12.0331 5.49943C12.2904 5.90483 12.3911 6.25561 12.3163 6.48563H12.3149Z" fill="currentColor"/>
  <path d="M6.8713 7.44795C6.84543 7.5299 6.69735 7.6219 6.61541 7.65066C6.23588 7.7671 6.02455 8.17107 6.141 8.54916C6.23588 8.85825 6.52053 9.0552 6.82674 9.0552C6.89718 9.0552 6.96906 9.04514 7.0395 9.02357C7.13295 8.99482 7.95958 8.71736 8.23272 7.90943C8.42536 7.33726 8.28304 6.7119 7.8115 6.05203C7.19477 5.18803 7.12576 4.95801 7.8 4.47066C8.12203 4.23777 8.19391 3.78923 7.96245 3.46721C7.72956 3.14518 7.28102 3.0733 6.959 3.30476C5.05991 4.6748 6.16831 6.22598 6.64129 6.88872C6.84974 7.18056 6.89574 7.3732 6.8713 7.44939V7.44795Z" fill="currentColor"/>
</svg>
