<svg xmlns="http://www.w3.org/2000/svg" width="26" height="24" viewBox="0 0 26 24" fill="none">
  <path d="M21.999 3.90063C22.2109 3.90079 22.4023 4.02055 22.5098 4.20923L24.9941 8.5686C25.0612 8.67369 25.0996 8.80015 25.0996 8.93579C25.0996 9.28502 24.8396 9.58414 24.5 9.58423H19.6836L14.0117 14.092L21.3555 19.9299C21.6214 20.1411 21.6769 20.5421 21.4883 20.8284V20.8293C21.3721 21.004 21.1888 21.0998 20.999 21.0999C20.9064 21.0999 20.8126 21.0771 20.7266 21.0295L20.6436 20.9739L13 14.8977L5.35645 20.9739C5.25025 21.0583 5.12531 21.0998 5.00098 21.0999C4.8111 21.0999 4.62755 21.0034 4.51172 20.8284C4.32254 20.542 4.37879 20.141 4.64453 19.9299L11.9873 14.092L6.31641 9.58423H1.5C1.27717 9.58415 1.07719 9.45159 0.973633 9.24634C0.870502 9.04237 0.875887 8.79356 0.989258 8.59497L3.48828 4.20923C3.59639 4.01987 3.78902 3.90063 4 3.90063H21.999ZM12.999 13.2864L17.6582 9.58423H8.34082L12.999 13.2864ZM19.1777 8.28735H23.4248L21.6631 5.19653H18.3096L19.1777 8.28735ZM13.5996 8.28735H17.9238L17.0547 5.19653H13.5996V8.28735ZM8.0752 8.28735H12.3994V5.19653H8.94434L8.0752 8.28735ZM2.57422 8.28735H6.82031L7.68945 5.19653H4.33594L2.57422 8.28735Z" fill="currentColor" stroke="currentColor" stroke-width="0.2"/>
</svg>
