<svg xmlns="http://www.w3.org/2000/svg" width="26" height="24" viewBox="0 0 26 24" fill="none">
<path d="M21.0004 8.39815C21.0004 6.63109 19.5675 5.19824 17.8003 5.19824H8.19934C7.35086 5.19824 6.53674 5.53545 5.93736 6.13555C5.33722 6.73527 5 7.54897 5 8.3974V8.39815H21.0004Z" stroke="currentColor" stroke-width="1.4" stroke-linecap="round" stroke-linejoin="round"/>
<path d="M15.4009 4.40002C15.4009 3.7637 15.1481 3.15315 14.6981 2.70279C14.2477 2.25281 13.6371 2 13.0007 2C12.3644 2 11.7538 2.25281 11.3034 2.70279C10.8534 3.15315 10.6006 3.7637 10.6006 4.40002V5.19991H15.4005V4.40002H15.4009Z" stroke="currentColor" stroke-width="1.4" stroke-linecap="round" stroke-linejoin="round"/>
<path d="M21.0004 8.40039H5V18.8C5 20.1257 6.07441 21.2 7.40016 21.2H18.6003C19.926 21.2 21.0004 20.1257 21.0004 18.8V8.40039Z" stroke="currentColor" stroke-width="1.4" stroke-linecap="round" stroke-linejoin="round"/>
<path d="M1 9.20044H2.60023L5.00039 11.6005" stroke="currentColor" stroke-width="1.4" stroke-linecap="round" stroke-linejoin="round"/>
<path d="M25.0004 9.2002H23.4002L21 11.6002" stroke="currentColor" stroke-width="1.4" stroke-linecap="round" stroke-linejoin="round"/>
  </svg>
