<svg xmlns="http://www.w3.org/2000/svg" width="61" height="27" viewBox="0 0 61 27" fill="currentColor">
  <g clip-path="url(#clip0_44_856)">
    <path d="M11.691 8.0547C10.8515 7.52586 9.93071 7.26099 8.92868 7.26099C8.2545 7.26099 7.5794 7.39065 6.90522 7.65089C6.24121 7.90744 5.6363 8.27419 5.08957 8.74838V7.57588V7.26099H0V8.03247C0.0923529 8.03247 0.181935 8.03895 0.271517 8.04914C0.299223 8.05192 0.326006 8.05747 0.353712 8.0621C0.416512 8.07137 0.477464 8.08248 0.538417 8.0973C0.567047 8.10378 0.595676 8.11119 0.624305 8.11953C0.685258 8.1362 0.744364 8.15565 0.80347 8.17695C0.827482 8.18528 0.85057 8.19362 0.874582 8.20288C0.950311 8.23344 1.02419 8.26678 1.09623 8.30476C1.09992 8.30661 1.10454 8.30846 1.10916 8.31124C1.18951 8.35477 1.26801 8.402 1.34281 8.45479C1.34651 8.45757 1.3502 8.46035 1.35482 8.46313C1.42316 8.51129 1.48781 8.56315 1.5506 8.61779C1.56169 8.62706 1.57185 8.63724 1.58293 8.64743C1.63926 8.69837 1.69375 8.75301 1.74455 8.80951C1.75378 8.81969 1.76209 8.82896 1.77133 8.83914C1.82859 8.90397 1.88308 8.97251 1.93295 9.0429C1.93295 9.0429 1.93295 9.04382 1.93387 9.04475C1.99759 9.13644 2.05485 9.23276 2.10565 9.33278C2.11026 9.34297 2.11488 9.35223 2.1195 9.36242C2.16752 9.46059 2.21 9.56154 2.24417 9.66619C2.24417 9.66805 2.24602 9.6699 2.24602 9.67175C2.27927 9.77641 2.30513 9.88384 2.3236 9.99405C2.32637 10.0126 2.32914 10.032 2.33191 10.0505C2.34853 10.1598 2.35869 10.27 2.35962 10.384C2.35962 10.384 2.35962 10.3849 2.35962 10.3858V23.8779C2.35777 24.1817 2.29774 24.4707 2.19246 24.7365C2.1315 24.8902 2.05578 25.0366 1.96619 25.1727C1.95603 25.1875 1.94588 25.2014 1.93572 25.2162C1.93202 25.2209 1.92833 25.2255 1.92463 25.2301C1.65589 25.6098 1.27816 25.9062 0.836717 26.0738C0.576282 26.1729 0.295529 26.2294 0.000923529 26.2294V27.0009H7.44826V26.686V26.2304C6.14978 26.2304 5.09788 25.1783 5.09049 23.8779V20.3864C5.49777 20.6059 5.92998 20.779 6.38713 20.9069C6.85443 21.0365 7.36422 21.1023 7.91741 21.1023C9.12724 21.1023 10.2299 20.7939 11.2246 20.1789C12.2183 19.5639 13.0098 18.7008 13.598 17.5903C14.1854 16.4808 14.48 15.2064 14.48 13.7663C14.48 12.4307 14.2242 11.2777 13.7144 10.3062C13.2046 9.33556 12.5295 8.58538 11.691 8.05655V8.0547ZM11.0168 17.0031C10.749 17.845 10.3426 18.5118 9.79772 19.0064C9.25284 19.501 8.56573 19.7482 7.73548 19.7482C7.234 19.7658 6.75377 19.6964 6.2957 19.5399C5.83763 19.3833 5.43497 19.1759 5.08957 18.9156V10.2534C5.41834 9.8718 5.8247 9.55135 6.30863 9.2911C6.79255 9.03086 7.30327 8.90119 7.83891 8.90119C8.68579 8.88452 9.37382 9.13088 9.90115 9.64211C10.4285 10.1543 10.8127 10.8128 11.0556 11.6194C11.2975 12.4261 11.4185 13.2717 11.4185 14.1562C11.4185 15.2138 11.2846 16.1641 11.0168 17.005V17.0031Z" fill="currentColor"/>
    <path d="M21.4656 18.1118V0H16.376V0.19727V0.652934C17.6745 0.652934 18.7264 1.70504 18.7338 3.00535V18.1118C18.7273 19.4121 17.6745 20.4642 16.376 20.4642V20.9198V21.1162H23.8234V20.9198V20.4642C22.5249 20.4642 21.4721 19.4121 21.4656 18.1118Z" fill="currentColor"/>
    <path d="M48.3495 18.9453C47.9256 19.1879 47.5146 19.3092 47.1175 19.3092C46.6511 19.3092 46.2826 19.1749 46.0148 18.9064C45.747 18.6378 45.5567 18.2562 45.4441 17.7616L45.4422 17.7552C45.3656 17.418 45.3268 17.0735 45.3268 16.7281V8.78912H49.321V7.41934H45.3268V3.80273H44.1114C44.1114 5.26883 43.2017 6.51913 41.9189 7.0248C41.5283 7.17854 41.1035 7.26653 40.6583 7.26653V8.78912H42.5959V17.1115C42.5959 17.5283 42.6291 17.9459 42.7196 18.3535C42.7538 18.5081 42.7935 18.6535 42.8369 18.7897C43.0447 19.4315 43.3301 19.9214 43.693 20.2595C44.056 20.5975 44.4586 20.8226 44.8992 20.9356C45.0423 20.9717 45.1845 21.0004 45.3268 21.0254C45.6223 21.0763 45.9169 21.105 46.2087 21.105C46.399 21.105 46.6502 21.0828 46.9605 21.0402C47.2717 20.9967 47.618 20.8929 47.9985 20.7281C48.379 20.5632 48.7771 20.3076 49.1917 19.9603C49.6064 19.6139 50.022 19.137 50.4366 18.5294L49.5547 17.7487C49.1742 18.3034 48.7725 18.7026 48.3486 18.9453H48.3495Z" fill="currentColor"/>
    <path d="M60.118 17.7487C59.7375 18.3034 59.3358 18.7026 58.9119 18.9453C58.488 19.1879 58.077 19.3092 57.6799 19.3092C57.2135 19.3092 56.845 19.175 56.5772 18.9064C56.3094 18.6378 56.1192 18.2562 56.0065 17.7617C55.9289 17.4199 55.8901 17.0707 55.8901 16.7207V8.7882H59.8844V7.41843H55.8901V3.80182H54.6748C54.6748 5.26791 53.7651 6.51821 52.4823 7.02389C52.0916 7.17763 51.6668 7.26561 51.2217 7.26561V8.7882H53.1592V17.1106C53.1592 17.5273 53.1925 17.945 53.283 18.3525C53.3172 18.5072 53.3569 18.6526 53.4003 18.7887C53.6081 19.4306 53.8934 19.9205 54.2564 20.2585C54.6193 20.5966 55.022 20.8216 55.4625 20.9346C55.6057 20.9708 55.7479 20.9995 55.8901 21.0245C56.1856 21.0754 56.4803 21.1041 56.7721 21.1041C56.9623 21.1041 57.2135 21.0819 57.5238 21.0393C57.8351 20.9958 58.1814 20.892 58.5619 20.7272C58.9424 20.5623 59.3404 20.3067 59.7551 19.9594C60.1698 19.613 60.5853 19.1361 61 18.5285L60.118 17.7478V17.7487Z" fill="currentColor"/>
    <path d="M38.7273 12.3511C38.3985 11.1879 37.7742 10.0821 36.8525 9.15777L36.8507 9.15592C35.929 8.23162 34.8281 7.60554 33.6691 7.27583C32.4722 6.93501 31.2144 6.91186 30.0295 7.20915C28.8834 7.49626 27.8056 8.08158 26.9181 8.97161L26.9126 8.97624L27.8389 9.90517C27.8407 9.90332 27.8426 9.90147 27.8435 9.89961C28.8058 8.93457 30.2899 8.70673 31.8128 9.13554C31.8784 9.15406 31.9439 9.17351 32.0086 9.19481C33.0365 9.52174 34.0718 10.145 34.9676 11.0434L34.9694 11.0453C35.8643 11.9427 36.4849 12.9809 36.8109 14.0108C36.8322 14.0784 36.8525 14.1451 36.871 14.2118C37.2967 15.7371 37.0686 17.2227 36.1072 18.1877C36.1054 18.1896 36.1035 18.1905 36.1017 18.1923C35.1403 19.1518 33.6608 19.3797 32.1425 18.9527C32.0659 18.9314 31.9883 18.9073 31.9116 18.8823C30.8948 18.5526 29.8715 17.9339 28.985 17.0448L28.9831 17.043C28.0965 16.1539 27.4787 15.1268 27.1499 14.1062C27.1259 14.0302 27.1028 13.9543 27.0816 13.8793L25.2262 15.7399C25.5559 16.9022 26.1802 18.0062 27.101 18.9305C27.101 18.9305 27.1019 18.9314 27.1028 18.9323C28.0254 19.8566 29.1281 20.4827 30.2871 20.8124C31.4766 21.1505 32.7262 21.1745 33.9055 20.8819C35.0553 20.5966 36.1377 20.0113 37.028 19.1203C37.028 19.1203 37.0317 19.1166 37.0335 19.1157C37.9201 18.2266 38.5038 17.1449 38.791 15.9955C39.0874 14.8091 39.0644 13.5496 38.7254 12.3502L38.7273 12.3511Z" fill="currentColor"/>
  </g>
  <defs>
    <clipPath id="clip0_44_856">
      <rect width="61" height="27" fill="currentColor"/>
    </clipPath>
  </defs>
</svg>
