<svg xmlns="http://www.w3.org/2000/svg" width="24" height="24" viewBox="0 0 24 24" fill="none">
  <path d="M18.75 2C21.3719 2 23.5 4.12807 23.5 6.75V15.75C23.5 17.6966 22.3222 19.3687 20.6494 20.1006L20.5 20.166V21.75C20.5 22.1619 20.1619 22.5 19.75 22.5C19.3381 22.5 19 22.1619 19 21.75V20.5H4.5V21.75C4.5 22.1619 4.16193 22.5 3.75 22.5C3.33807 22.5 3 22.1619 3 21.75V20.167L2.85156 20.1016C1.17706 19.3595 0 17.6958 0 15.75V6.75C0 4.12807 2.12807 2 4.75 2H18.75ZM4.75 3.5C2.96193 3.5 1.5 4.96193 1.5 6.75V15.75C1.5 17.5381 2.96193 19 4.75 19H18.75C20.5381 19 22 17.5381 22 15.75V6.75C22 4.96193 20.5381 3.5 18.75 3.5H4.75ZM13.75 6C14.7119 6 15.5 6.78807 15.5 7.75V14.75C15.5 15.7119 14.7119 16.5 13.75 16.5H5.75C4.78807 16.5 4 15.7119 4 14.75V7.75C4 6.78807 4.78807 6 5.75 6H13.75ZM18.75 6C19.1619 6 19.5 6.33807 19.5 6.75V15.75C19.5 16.1619 19.1619 16.5 18.75 16.5C18.3381 16.5 18 16.1619 18 15.75V6.75C18 6.33807 18.3381 6 18.75 6ZM5.5 7.5V15H14V7.5H5.5Z" fill="currentColor"/>
</svg>
