<svg xmlns="http://www.w3.org/2000/svg" width="24" height="24" viewBox="0 0 24 24" fill="none">
  <path d="M15.8355 3.13643C15.6285 2.9946 15.3678 2.9601 15.1302 3.04826L4.84533 6.87393H2.714C1.219 6.87393 0 8.11593 0 9.6416V13.5171C0 14.9393 1.058 16.1161 2.415 16.2656V20.8426C2.415 21.2643 2.76 21.6093 3.18167 21.6093C3.60333 21.6093 3.94833 21.2643 3.94833 20.8426V16.2809H4.8415L15.1263 20.1066C15.2145 20.1373 15.3027 20.1564 15.3947 20.1564C15.548 20.1564 15.7013 20.1104 15.8317 20.0184C16.0387 19.8766 16.1613 19.6389 16.1613 19.3898V3.7651C16.1652 3.5121 16.0387 3.27826 15.8355 3.13643ZM1.53333 13.5133V9.63776C1.53333 8.95926 2.06233 8.40343 2.714 8.40343H4.21667V14.7476H2.714C2.06233 14.7476 1.53333 14.1956 1.53333 13.5133ZM14.6318 18.2858L5.75 14.9814V8.1696L14.6318 4.86526V18.2858Z" fill="currentColor"/>
  <path d="M22.2335 10.8125H19.3317C18.91 10.8125 18.565 11.1575 18.565 11.5792C18.565 12.0008 18.91 12.3458 19.3317 12.3458H22.2335C22.6552 12.3458 23.0002 12.0008 23.0002 11.5792C23.0002 11.1575 22.6552 10.8125 22.2335 10.8125Z" fill="currentColor"/>
  <path d="M21.7236 15.4685L19.6574 14.4949C19.2741 14.3147 18.8179 14.4795 18.6378 14.8629C18.4576 15.2462 18.6224 15.7024 19.0058 15.8825L21.0719 16.8562C21.1793 16.906 21.2904 16.929 21.3978 16.929C21.6853 16.929 21.9613 16.768 22.0916 16.4882C22.2718 16.1049 22.1069 15.6487 21.7236 15.4685Z" fill="currentColor"/>
  <path d="M19.3316 8.7347C19.4428 8.7347 19.5539 8.7117 19.6574 8.66187L21.7236 7.6882C22.1069 7.50804 22.2718 7.05187 22.0916 6.66854C21.9114 6.2852 21.4514 6.12037 21.0719 6.30054L19.0058 7.2742C18.6224 7.45437 18.4576 7.91054 18.6378 8.29387C18.7681 8.5737 19.0441 8.7347 19.3316 8.7347Z" fill="currentColor"/>
</svg>
