<svg xmlns="http://www.w3.org/2000/svg" width="24" height="24" viewBox="0 0 24 24" fill="none">
  <path d="M17.7852 0H7.21476C5.99342 0 5 0.990938 5 2.20922V20.2842C5 21.2452 5.62359 22.0833 6.50987 22.3791V23.2964C6.50987 23.6845 6.82566 23.9995 7.21476 23.9995C7.60385 23.9995 7.91964 23.6845 7.91964 23.2964V22.4934H17.0799V23.2964C17.0799 23.6845 17.3957 23.9995 17.7848 23.9995C18.1739 23.9995 18.4897 23.6845 18.4897 23.2964V22.3791C19.3759 22.0828 19.9995 21.2452 19.9995 20.2842V2.20922C20 0.990938 19.0066 0 17.7852 0ZM18.5902 20.2842C18.5902 20.4956 18.5042 20.7023 18.3543 20.8519C18.2021 21.0037 18 21.0872 17.7852 21.0872H7.21476C7 21.0872 6.79746 21.0037 6.64521 20.8519C6.4953 20.7023 6.4093 20.4956 6.4093 20.2842V9.69047H18.5898V20.2842H18.5902ZM18.5902 8.28422H6.40977V2.20922C6.40977 1.76625 6.77115 1.40625 7.21476 1.40625H17.7848C18.2289 1.40625 18.5898 1.76672 18.5898 2.20922V8.28422H18.5902Z" fill="currentColor"/>
  <path d="M8.7254 3.0127C8.3363 3.0127 8.02051 3.3277 8.02051 3.71582V5.9752C8.02051 6.36332 8.3363 6.67832 8.7254 6.67832C9.11449 6.67832 9.43028 6.36332 9.43028 5.9752V3.71582C9.43028 3.32723 9.11449 3.0127 8.7254 3.0127Z" fill="currentColor"/>
  <path d="M8.7254 17.2219C9.11449 17.2219 9.43028 16.9069 9.43028 16.5187V12C9.43028 11.6119 9.11449 11.2969 8.7254 11.2969C8.3363 11.2969 8.02051 11.6119 8.02051 12V16.5187C8.02051 16.9069 8.33583 17.2219 8.7254 17.2219Z" fill="currentColor"/>
</svg>
