<svg xmlns="http://www.w3.org/2000/svg" width="24" height="24" viewBox="0 0 24 24" fill="none">
  <path d="M16 1.25C19.1719 1.25 21.75 3.82807 21.75 7V9.3457L21.915 9.40527C22.9809 9.79129 23.75 10.8105 23.75 12V16C23.75 17.5472 23.0003 18.9251 21.8486 19.8008L21.75 19.876V22C21.75 22.4119 21.4119 22.75 21 22.75C20.5881 22.75 20.25 22.4119 20.25 22V20.5898L19.9463 20.6562C19.6474 20.7216 19.3258 20.75 19 20.75H5C4.67424 20.75 4.35265 20.7216 4.05371 20.6562L3.75 20.5898V22C3.75 22.4119 3.41193 22.75 3 22.75C2.58807 22.75 2.25 22.4119 2.25 22V19.876L2.15137 19.8008C0.999748 18.9251 0.25 17.5472 0.25 16V12C0.25 10.7997 1.01948 9.78124 2.08301 9.40527L2.25 9.34668V7C2.25 3.82807 4.82807 1.25 8 1.25H16ZM21 10.75C20.3119 10.75 19.75 11.3119 19.75 12V15C19.75 15.4119 19.4119 15.75 19 15.75H5C4.58807 15.75 4.25 15.4119 4.25 15V12C4.25 11.3119 3.68807 10.75 3 10.75C2.31193 10.75 1.75 11.3119 1.75 12V16C1.75 17.7881 3.21193 19.25 5 19.25H19C20.7881 19.25 22.25 17.7881 22.25 16V12C22.25 11.3119 21.6881 10.75 21 10.75ZM8 2.75C5.65193 2.75 3.75 4.65193 3.75 7V9.3457L3.91504 9.40527C4.98094 9.79129 5.75 10.8105 5.75 12V14.25H18.25V12C18.25 10.7997 19.0195 9.78124 20.083 9.40527L20.25 9.34668V7C20.25 4.65193 18.3481 2.75 16 2.75H8Z" fill="currentColor"/>
</svg>
