<svg xmlns="http://www.w3.org/2000/svg" width="24" height="24" viewBox="0 0 24 24" fill="none">
  <path d="M21.6305 13.5511H2.36927C1.61309 13.5511 1 12.938 1 12.1818C1 11.4256 1.61309 10.8125 2.36927 10.8125H21.6305C22.3867 10.8125 22.9997 11.4256 22.9997 12.1818C22.9997 12.938 22.3867 13.5511 21.6305 13.5511Z" stroke="currentColor" stroke-width="1.4" stroke-linecap="round" stroke-linejoin="round"/>
  <path d="M15.8531 21.4005H8.14549C4.94345 21.4005 2.34766 18.8047 2.34766 15.6026V13.5518H21.651V15.6026C21.651 18.8047 19.0552 21.4005 15.8531 21.4005Z" stroke="currentColor" stroke-width="1.4" stroke-linecap="round" stroke-linejoin="round"/>
  <path d="M6.18028 21.0576L5.21289 22.9999" stroke="currentColor" stroke-width="1.4" stroke-linecap="round" stroke-linejoin="round"/>
  <path d="M17.8193 21.0576L18.7867 22.9999" stroke="currentColor" stroke-width="1.4" stroke-linecap="round" stroke-linejoin="round"/>
  <path d="M12.0684 2.08097L7.6542 6.4952L7.48749 6.32849C6.26849 5.10948 6.26849 3.13326 7.48749 1.91426C8.70648 0.695248 10.6827 0.695248 11.9017 1.91426L12.0684 2.08062V2.08097Z" stroke="currentColor" stroke-width="1.4" stroke-linecap="round" stroke-linejoin="round"/>
  <path d="M3.28125 10.8126V3.79504C3.28125 3.10594 3.56058 2.48155 4.01244 2.03003C4.46396 1.57816 5.08835 1.29883 5.77743 1.29883C6.42099 1.29883 7.01012 1.5429 7.45479 1.94684" stroke="currentColor" stroke-width="1.4" stroke-linecap="round" stroke-linejoin="round"/>
</svg>
