<svg xmlns="http://www.w3.org/2000/svg" width="24" height="24" viewBox="0 0 24 24" fill="none">
  <path d="M21 1.99976H3C1.89543 1.99976 1 2.89519 1 3.99976V19.8687C1 20.9732 1.89543 21.8687 3 21.8687H21C22.1046 21.8687 23 20.9732 23 19.8687V3.99976C23 2.89519 22.1046 1.99976 21 1.99976Z" stroke="currentColor" stroke-width="1.4" stroke-miterlimit="10"/>
  <path d="M6.86734 10.1126C8.34629 10.1126 9.54522 8.91367 9.54522 7.43472C9.54522 5.95577 8.34629 4.75684 6.86734 4.75684C5.38838 4.75684 4.18945 5.95577 4.18945 7.43472C4.18945 8.91367 5.38838 10.1126 6.86734 10.1126Z" stroke="currentColor" stroke-width="1.5" stroke-miterlimit="10"/>
  <path d="M6.8672 19.1114C8.57908 19.1114 9.96683 17.7236 9.96683 16.0117C9.96683 14.2999 8.57908 12.9121 6.8672 12.9121C5.15533 12.9121 3.76758 14.2999 3.76758 16.0117C3.76758 17.7236 5.15533 19.1114 6.8672 19.1114Z" stroke="currentColor" stroke-width="1.5" stroke-miterlimit="10"/>
  <path d="M15.9754 15.7692C18.3263 15.7692 20.2321 13.8634 20.2321 11.5125C20.2321 9.16164 18.3263 7.25586 15.9754 7.25586C13.6245 7.25586 11.7188 9.16164 11.7188 11.5125C11.7188 13.8634 13.6245 15.7692 15.9754 15.7692Z" stroke="currentColor" stroke-width="1.5" stroke-miterlimit="10"/>
  <path d="M15.9751 13.0303C15.138 13.0303 14.457 12.3493 14.457 11.5122C14.457 10.6751 15.138 9.99414 15.9751 9.99414C16.8122 9.99414 17.4932 10.6751 17.4932 11.5122C17.4932 12.3493 16.8122 13.0303 15.9751 13.0303Z" stroke="currentColor" stroke-width="1.5" stroke-miterlimit="10"/>
  <path d="M13.1719 18.4033V19.7726" stroke="currentColor" stroke-width="1.5" stroke-miterlimit="10"/>
  <path d="M15.9756 18.4033V19.7726" stroke="currentColor" stroke-width="1.5" stroke-miterlimit="10"/>
  <path d="M18.7793 18.4033V19.7726" stroke="currentColor" stroke-width="1.5" stroke-miterlimit="10"/>
</svg>
