<svg xmlns="http://www.w3.org/2000/svg" width="24" height="24" viewBox="0 0 24 24" fill="none">
  <path d="M14.1778 2C8.76187 2 4.35563 6.48602 4.35563 12C4.35563 12.0883 4.35703 12.1771 4.35938 12.2658H0V13.6975H1.07625L1.63453 15.3449C1.76812 15.7396 1.96359 16.0995 2.20641 16.4168H0V17.8485H1.07625L1.63453 19.4959C2.14172 20.9935 3.52781 21.9995 5.08359 21.9995H14.1778C19.5938 21.9995 24 17.5135 24 11.9995C24 6.48554 19.5938 2 14.1778 2ZM15.0792 19.0297C14.7675 19.9498 13.9153 20.5683 12.9595 20.5683H5.08359C4.12734 20.5683 3.27562 19.9498 2.96391 19.0297L2.56406 17.849H15.48L15.0802 19.0297H15.0792ZM15.0792 14.8787C14.7675 15.7988 13.9153 16.4173 12.9595 16.4173H5.08359C4.12734 16.4173 3.27562 15.7993 2.96391 14.8787L2.56406 13.698H15.48L15.0802 14.8787H15.0792ZM8.85141 12.2658C8.84719 12.1771 8.84437 12.0883 8.84437 12C8.84437 9.00582 11.2369 6.57001 14.1778 6.57001C17.1187 6.57001 19.5112 9.00582 19.5112 12C19.5112 13.7605 18.6811 15.3965 17.28 16.4173H15.8367C16.0795 16.1004 16.275 15.7401 16.4086 15.3454L16.9669 13.698H18.0431V12.2663H8.85141V12.2658ZM15.9788 20.3702C16.1564 20.1039 16.3022 19.8114 16.4086 19.4969L16.9669 17.8495H17.7094C19.838 16.5185 20.9175 14.3132 20.9175 12.0005C20.9175 8.21695 17.8941 5.13878 14.1778 5.13878C10.4616 5.13878 7.43812 8.21695 7.43812 12.0005C7.43812 12.0892 7.44 12.178 7.44328 12.2663H5.76656C5.76375 12.1775 5.76188 12.0888 5.76188 12.0005C5.76188 7.27584 9.53719 3.43218 14.1778 3.43218C18.8184 3.43218 22.5938 7.27584 22.5938 12.0005C22.5938 16.0956 19.7569 19.5284 15.9788 20.3707V20.3702Z" fill="currentColor"/>
</svg>
