<svg xmlns="http://www.w3.org/2000/svg" width="24" height="24" viewBox="0 0 24 24" fill="none">
  <path d="M22.7246 7.87598C22.8969 7.77047 23.0991 7.73651 23.2773 7.80762L23.4141 7.87598C23.7138 8.05759 23.8957 8.40113 23.8994 8.81641C23.1286 11.3972 23.044 13.9752 23.0439 16.2861V23.1436C23.0439 23.378 22.9655 23.5655 22.8369 23.6943C22.7083 23.823 22.5212 23.9014 22.2871 23.9014C22.053 23.9013 21.8659 23.823 21.7373 23.6943C21.6087 23.5655 21.5303 23.378 21.5303 23.1436V19.6152H16.1914V23.1436C16.1914 23.378 16.113 23.5655 15.9844 23.6943C15.8558 23.823 15.6687 23.9014 15.4346 23.9014C15.2005 23.9013 15.0134 23.823 14.8848 23.6943C14.7562 23.5655 14.6777 23.3779 14.6777 23.1436V17.1436C14.6777 16.256 15.4042 15.5295 16.291 15.5293H21.5303V15.4297C21.5303 13.2918 21.7019 10.8155 22.3838 8.3418L22.3848 8.33496C22.4212 8.15243 22.5519 7.98185 22.7246 7.87598ZM18.7754 12.0996L18.9424 12.1143C19.0996 12.1422 19.2288 12.2102 19.3252 12.3066C19.4538 12.4354 19.5322 12.623 19.5322 12.8574L19.5176 13.0244C19.4897 13.1818 19.4216 13.3109 19.3252 13.4072C19.1966 13.5358 19.0095 13.6142 18.7754 13.6143H12.6797V23.1426C12.6797 23.377 12.6013 23.5646 12.4727 23.6934C12.3441 23.822 12.1569 23.9004 11.9229 23.9004C11.6888 23.9004 11.5016 23.822 11.373 23.6934C11.2445 23.5646 11.166 23.377 11.166 23.1426V13.6143H5.07031C4.83619 13.6142 4.64908 13.5358 4.52051 13.4072C4.392 13.2787 4.31354 13.0917 4.31348 12.8574L4.32812 12.6904C4.356 12.5328 4.4241 12.4032 4.52051 12.3066C4.6491 12.178 4.83629 12.0997 5.07031 12.0996H18.7754ZM0.635742 7.8125C1.009 7.73788 1.39071 7.9605 1.54785 8.34668C2.22854 10.8186 2.40038 13.2923 2.40039 15.4287V15.5283H7.63965C8.52759 15.5283 9.25794 16.2586 9.33887 17.0674V23.0576L9.32422 23.2246C9.29632 23.3822 9.22827 23.5118 9.13184 23.6084C9.00322 23.7371 8.81605 23.8154 8.58203 23.8154C8.34799 23.8154 8.16081 23.7371 8.03223 23.6084C7.90364 23.4796 7.82522 23.292 7.8252 23.0576V19.5293H2.48633V23.0576L2.47168 23.2246C2.44379 23.3822 2.37573 23.5118 2.2793 23.6084C2.1507 23.7371 1.96355 23.8154 1.72949 23.8154C1.49546 23.8154 1.30827 23.7371 1.17969 23.6084C1.0511 23.4796 0.972678 23.292 0.972656 23.0576V16.2002L0.967773 15.3232C0.940847 13.2584 0.790118 11.0561 0.113281 8.7207C0.0765367 8.53256 0.115084 8.32225 0.210938 8.14941C0.307357 7.9758 0.457002 7.84832 0.635742 7.8125ZM16.1064 17.0439V18.1006H21.4443V17.0439H16.1064ZM2.40039 17.0439V18.0996H7.73926V17.0439H2.40039ZM12.0898 0.114258C12.247 0.142232 12.3763 0.210244 12.4727 0.306641C12.6013 0.435439 12.6797 0.623078 12.6797 0.857422V2.73828L12.7578 2.75488C14.6837 3.17401 16.1055 4.84943 16.1055 6.85742L16.0908 7.02441C16.0629 7.1819 15.9948 7.31184 15.8984 7.4082C15.7699 7.53648 15.5825 7.61425 15.3486 7.61426H8.49609C8.26197 7.61421 8.07486 7.53577 7.94629 7.40723C7.81778 7.27867 7.73932 7.09168 7.73926 6.85742L7.74414 6.66992C7.82944 4.74588 9.22136 3.16096 11.0869 2.75488L11.165 2.73828V0.857422C11.165 0.623122 11.2433 0.435457 11.3721 0.306641C11.5009 0.177838 11.6887 0.0996346 11.9229 0.0996094L12.0898 0.114258ZM11.8369 4.18652C10.6807 4.18657 9.70006 4.8991 9.34375 5.96875L9.2998 6.09961H14.459L14.415 5.96875C14.0575 4.89563 12.9891 4.1866 11.8369 4.18652Z" fill="currentColor"/>
</svg>
