<svg xmlns="http://www.w3.org/2000/svg" width="24" height="24" viewBox="0 0 24 24" fill="none">
  <path d="M16.4983 14.2651C16.5525 14.0167 16.6622 13.7811 16.8218 13.5775C17.2602 13.0192 17.6644 12.4229 18.0298 11.7903C18.3952 11.1578 18.7093 10.5094 18.9735 9.8508C19.1391 9.43848 19.4597 9.10683 19.8669 8.92842C20.0893 8.8311 20.2814 8.65909 20.4017 8.42348C20.6566 7.92536 20.488 7.30517 20.0167 7.00426C19.8029 6.86767 19.5617 6.81517 19.3295 6.83608C18.9291 6.87236 18.5279 6.7823 18.1937 6.55864C17.2192 5.90644 16.2042 5.27387 15.1512 4.66606C14.0986 4.05825 13.043 3.49569 11.9909 2.97751C11.6302 2.79995 11.3519 2.49733 11.1829 2.13281C11.0851 1.92153 10.9187 1.73884 10.6937 1.62189C10.1973 1.36408 9.57584 1.52841 9.27193 1.99793C9.12809 2.21988 9.07559 2.47257 9.10205 2.71373C9.15114 3.1555 9.02436 3.59898 8.74991 3.94856C8.42124 4.36728 8.11136 4.80735 7.82324 5.26833" stroke="currentColor" stroke-width="1.4" stroke-linecap="round" stroke-linejoin="round"/>
  <path d="M15.744 14.2644C15.7516 14.2213 15.7568 14.1769 15.7589 14.1325C15.7721 13.8683 15.6919 13.6233 15.548 13.4278C15.2847 13.0697 15.1729 12.6224 15.2356 12.1823C15.3359 11.4793 15.388 10.761 15.388 10.0307C15.388 9.30036 15.3359 8.58157 15.2356 7.879C15.1729 7.43894 15.2847 6.99162 15.548 6.63351C15.6919 6.43802 15.7721 6.19301 15.7589 5.9288C15.7307 5.37008 15.2744 4.91721 14.7157 4.89203C14.4626 4.88093 14.227 4.95563 14.0366 5.08965C13.7079 5.32099 13.3157 5.44392 12.9145 5.41703C11.7445 5.33935 10.5489 5.29923 9.33329 5.29923C8.11765 5.29923 6.92208 5.33935 5.75211 5.41703C5.35089 5.4435 4.95862 5.32099 4.62996 5.08965C4.43916 4.95563 4.20397 4.8805 3.95086 4.89203C3.39213 4.91678 2.93584 5.37008 2.90767 5.9288C2.89443 6.19301 2.97468 6.43802 3.11852 6.63351C3.38188 6.99162 3.49371 7.43894 3.43097 7.879C3.33066 8.582 3.27859 9.30036 3.27859 10.0307C3.27859 10.761 3.33066 11.4798 3.43097 12.1823C3.49371 12.6224 3.38188 13.0697 3.11852 13.4278C2.97468 13.6233 2.89443 13.8683 2.90767 14.1325C2.91065 14.1914 2.91834 14.2491 2.93029 14.305" stroke="currentColor" stroke-width="1.4" stroke-linecap="round" stroke-linejoin="round"/>
  <path d="M11.5002 14.3052H3.73176C2.22289 14.3052 1 15.5281 1 17.0369C1 18.5458 2.22289 19.7686 3.73176 19.7686H17.9028C18.657 19.7686 19.2687 19.157 19.2687 18.4028C19.2687 17.6486 18.657 17.0369 17.9028 17.0369H4.83941" stroke="currentColor" stroke-width="1.4" stroke-linecap="round" stroke-linejoin="round"/>
  <path d="M7.18318 19.7686H2.36588C1.61166 19.7686 1 20.3803 1 21.1345C1 21.8887 1.61166 22.5004 2.36588 22.5004H17.9028C20.1659 22.5004 22.0004 20.6658 22.0004 18.4028C22.0004 16.1397 20.1659 14.3052 17.9028 14.3052H11.5002" stroke="currentColor" stroke-width="1.4" stroke-linecap="round" stroke-linejoin="round"/>
</svg>
