<svg xmlns="http://www.w3.org/2000/svg" width="24" height="24" viewBox="0 0 24 24" fill="none">
  <path d="M20.1073 23H13.2609C12.5047 23 11.8916 22.3869 11.8916 21.6308V16.1536C11.8916 12.1556 14.7473 8.82447 18.5303 8.08916C19.3535 7.9293 20.1073 8.60778 20.1073 9.44613V17.5229" stroke="currentColor" stroke-width="1.4" stroke-linecap="round" stroke-linejoin="round"/>
  <path d="M22.8463 20.262C22.8463 21.7744 21.6201 23.0006 20.1077 23.0006C18.5953 23.0006 17.3691 21.7744 17.3691 20.262C17.3691 18.7496 18.5953 17.5234 20.1077 17.5234C21.6201 17.5234 22.8463 18.7496 22.8463 20.262Z" stroke="currentColor" stroke-width="1.4" stroke-linecap="round" stroke-linejoin="round"/>
  <path d="M9.06144 23.0005H0.845703C0.845703 21.4882 2.0719 20.262 3.58428 20.262H6.32286C7.83524 20.262 9.06144 21.4882 9.06144 23.0005Z" stroke="currentColor" stroke-width="1.4" stroke-linecap="round" stroke-linejoin="round"/>
  <path d="M4.9541 20.2617V2.71186C4.9541 1.7667 5.72056 1.00024 6.66571 1.00024C7.61086 1.00024 8.37732 1.7667 8.37732 2.71186V14.4422C8.37732 15.3874 9.14378 16.1538 10.0889 16.1538H11.8919" stroke="currentColor" stroke-width="1.4" stroke-linecap="round" stroke-linejoin="round"/>
</svg>
