<svg xmlns="http://www.w3.org/2000/svg" width="24" height="24" viewBox="0 0 24 24" fill="none">
  <path d="M20.6153 0.000244141H3.07703C1.93188 0.000244141 1 0.932119 1 2.07728V21.9232C1 23.0684 1.93188 24.0002 3.07703 24.0002H20.6153C21.7605 24.0002 22.6923 23.0684 22.6923 21.9232V2.07728C22.6923 0.932119 21.7605 0.000244141 20.6153 0.000244141ZM2.38469 2.07728C2.38469 1.69571 2.695 1.38493 3.07703 1.38493H20.6153C20.9969 1.38493 21.3077 1.69524 21.3077 2.07728V4.84618H2.38469V2.07728ZM21.3077 21.9232C21.3077 22.3048 20.9973 22.6156 20.6153 22.6156H3.07703C2.69547 22.6156 2.38469 22.3052 2.38469 21.9232V6.23087H21.3077V21.9232Z" fill="currentColor"/>
  <path d="M5.15234 14.4265C5.15234 18.1165 8.15422 21.1188 11.8447 21.1188C15.5352 21.1188 18.537 18.1165 18.537 14.4265C18.537 14.247 18.5295 14.0688 18.5159 13.8931C18.5159 13.8921 18.5159 13.8912 18.5159 13.8907C18.2417 10.4506 15.3547 7.73462 11.8452 7.73462C8.33562 7.73462 5.44859 10.4506 5.17437 13.8907C5.17437 13.8917 5.17437 13.8926 5.17437 13.8931C5.16031 14.0688 5.15328 14.247 5.15328 14.4265H5.15234ZM11.8442 19.7342C9.03641 19.7342 6.73156 17.5427 6.54875 14.7804C6.69828 14.8418 6.83047 14.9234 6.98141 15.0162C7.38969 15.2674 7.89828 15.5806 8.84422 15.5806C9.79016 15.5806 10.2983 15.2679 10.707 15.0162C11.0455 14.8076 11.2902 14.6571 11.8442 14.6571C12.3983 14.6571 12.643 14.8076 12.9814 15.0162C13.3897 15.2674 13.8983 15.5806 14.8442 15.5806C15.7902 15.5806 16.2987 15.2679 16.707 15.0162C16.858 14.9234 16.9906 14.8418 17.1397 14.7804C16.9573 17.5427 14.652 19.7342 11.8442 19.7342ZM11.8442 9.11884C14.4059 9.11884 16.5495 10.9427 17.0445 13.3606C16.5767 13.4717 16.2561 13.6681 15.9814 13.8368C15.643 14.0454 15.3983 14.1959 14.8442 14.1959C14.2902 14.1959 14.0455 14.0454 13.707 13.8368C13.2987 13.5856 12.7902 13.2724 11.8442 13.2724C10.8983 13.2724 10.3902 13.5856 9.98141 13.8368C9.64297 14.0454 9.39828 14.1959 8.84422 14.1959C8.29016 14.1959 8.04547 14.0454 7.70703 13.8368C7.43234 13.6676 7.11219 13.4712 6.64437 13.3606C7.13937 10.9432 9.28297 9.11884 11.8442 9.11884Z" fill="currentColor"/>
</svg>
