<svg xmlns="http://www.w3.org/2000/svg" width="25" height="25" viewBox="0 0 25 25" fill="none">
  <path d="M23.9997 9.43359V10.9667C23.9997 12.5932 23.3533 14.1531 22.2034 15.3036C21.0532 16.4534 19.4928 17.0997 17.8666 17.0997H7.13303C5.50645 17.0997 3.94644 16.4534 2.79621 15.3036C1.64634 14.1534 1 12.5932 1 10.9667V9.43359H24H23.9997Z" stroke="currentColor" stroke-width="1.4" stroke-linecap="round" stroke-linejoin="round"/>
  <path d="M14.7991 20.167H10.1992V21.7001C10.1992 22.9705 11.2288 24 12.4993 24C13.7698 24 14.7994 22.9705 14.7994 21.7001V20.167H14.7991Z" stroke="currentColor" stroke-width="1.4" stroke-linecap="round" stroke-linejoin="round"/>
  <path d="M10.9658 20.1642H14.0325V17.0977H10.9658V20.1642Z" stroke="currentColor" stroke-width="1.4" stroke-linecap="round" stroke-linejoin="round"/>
  <path d="M12.499 9.43265V3.29998C12.499 2.69018 12.7413 2.10508 13.1726 1.6735C13.6042 1.24227 14.1893 1 14.7991 1C16.0696 1 17.0992 2.02957 17.0992 3.29998" stroke="currentColor" stroke-width="1.4" stroke-linecap="round" stroke-linejoin="round"/>
  <path d="M6.36621 9.43248H9.4329V6.36597H6.36621V9.43248Z" stroke="currentColor" stroke-width="1.4" stroke-linecap="round" stroke-linejoin="round"/>
  <path d="M15.5654 9.43273H18.6321V6.36621H15.5654V9.43273Z" stroke="currentColor" stroke-width="1.4" stroke-linecap="round" stroke-linejoin="round"/>
</svg>
