<svg xmlns="http://www.w3.org/2000/svg" width="24" height="25" viewBox="0 0 24 25" fill="none">
  <path d="M18.0938 0.925049C18.4491 0.925311 18.7371 1.21312 18.7354 1.56763V17.9133C18.7353 18.0786 18.6713 18.2294 18.5693 18.343V18.3479L18.5479 18.3694C18.4328 18.4844 18.272 18.5587 18.0938 18.5588C17.7381 18.5588 17.4493 18.271 17.4512 17.9163V2.21313L6.21094 2.21118L6.21289 17.9143C6.21289 18.2699 5.92494 18.5586 5.57031 18.5569C5.21718 18.555 4.92683 18.2696 4.92871 17.9143L4.9248 1.5686C4.92504 1.21321 5.21286 0.92521 5.56738 0.927002L18.0928 0.925049H18.0938Z" fill="currentColor" stroke="currentColor" stroke-width="0.15"/>
  <path d="M10.7031 0.938721C10.9898 0.986912 11.2213 1.19722 11.2197 1.47095V5.22485L11.207 5.33716C11.1836 5.43311 11.1279 5.51651 11.0547 5.58521V5.59106L11.0273 5.61353C10.9115 5.70899 10.7521 5.76777 10.5781 5.76782C10.2368 5.76782 9.93354 5.5377 9.93555 5.22485V1.47095C9.93555 1.15753 10.2377 0.926536 10.5781 0.927979L10.7031 0.938721Z" fill="currentColor" stroke="currentColor" stroke-width="0.15"/>
  <path d="M13.209 0.938721C13.4957 0.986912 13.7272 1.19722 13.7256 1.47095V5.22583C13.7255 5.36525 13.6602 5.49106 13.5605 5.58521V5.59106L13.5332 5.61353C13.4174 5.70899 13.258 5.76777 13.084 5.76782C12.7427 5.76782 12.4394 5.5377 12.4414 5.22485V1.47095C12.4414 1.15753 12.7436 0.926536 13.084 0.927979L13.209 0.938721Z" fill="currentColor" stroke="currentColor" stroke-width="0.15"/>
  <path d="M8.19531 0.936768C8.48203 0.984955 8.71358 1.19526 8.71191 1.46899L8.7168 4.67993H14.9453V1.46997C14.9454 1.15675 15.2467 0.926691 15.5869 0.927979C15.928 0.927979 16.2311 1.15747 16.2295 1.46997L16.2305 5.22192C16.2305 5.34264 16.1811 5.45487 16.0986 5.54712L16.1064 5.55396L16.0361 5.61157C15.9145 5.71169 15.7531 5.76587 15.5869 5.76587H8.07129C7.90502 5.76577 7.74343 5.7116 7.62207 5.61157C7.50033 5.5112 7.42773 5.3713 7.42773 5.22192V1.46899C7.42773 1.15563 7.72991 0.92458 8.07031 0.926025L8.19531 0.936768Z" fill="currentColor" stroke="currentColor" stroke-width="0.15"/>
  <path d="M18.0928 10.562C18.4484 10.562 18.7371 10.8499 18.7354 11.2046L18.7227 11.3345C18.6974 11.46 18.6358 11.5726 18.5479 11.6606C18.4327 11.7758 18.2712 11.8501 18.0928 11.8501H13.084C12.7727 11.8501 12.5128 11.6293 12.4541 11.3364L12.4414 11.2075C12.4433 10.8544 12.7288 10.5641 13.084 10.5659L18.0928 10.562Z" fill="currentColor" stroke="currentColor" stroke-width="0.15"/>
  <path d="M10.374 10.5657C10.7296 10.5657 11.0184 10.8536 11.0166 11.2083L11.0029 11.3362C10.9776 11.4604 10.917 11.5735 10.8291 11.6614C10.714 11.7765 10.5525 11.8499 10.374 11.8499H5.56934C5.21369 11.8499 4.92488 11.562 4.92676 11.2073C4.92716 10.852 5.21492 10.5639 5.56934 10.5657H10.374Z" fill="currentColor" stroke="currentColor" stroke-width="0.15"/>
  <path d="M18.0938 17.2747C18.3007 17.2747 18.4983 17.3634 18.6182 17.5168H18.6191C18.7434 17.6722 18.7689 17.8714 18.6934 18.0491L18.6924 18.05L16.1885 23.7151L16.1875 23.7161C16.153 23.7894 16.1031 23.8566 16.04 23.9114L16.0186 23.9299H16.0127C15.8977 24.0197 15.7482 24.0744 15.5889 24.0745H8.07324C7.81426 24.0744 7.57391 23.9365 7.47461 23.7151L4.96973 18.05C4.89128 17.8725 4.91995 17.6715 5.04395 17.5168C5.16621 17.3644 5.36199 17.2729 5.56934 17.2747H18.0938ZM8.5127 22.9377H15.1494L17.1514 18.4104H6.51074L8.5127 22.9377Z" fill="currentColor" stroke="currentColor" stroke-width="0.15"/>
  <path d="M13.084 7.8645C13.2546 7.8645 13.4182 7.93314 13.5391 8.05396C13.6596 8.17465 13.7274 8.33767 13.7275 8.50806V12.551C13.726 13.0232 13.5612 13.4729 13.2588 13.8323H13.2705L13.1426 13.9602C12.7655 14.3373 12.2627 14.5444 11.7295 14.5461C10.6274 14.5461 9.73148 13.6512 9.73145 12.5491V8.50708C9.73145 8.15148 10.0194 7.86271 10.374 7.8645H13.084ZM11.0156 9.14966V12.5491C11.0156 12.9426 11.3353 13.2613 11.7266 13.26H11.7275C11.918 13.2599 12.0945 13.1868 12.2295 13.052C12.3639 12.9176 12.4368 12.7388 12.4385 12.5491L12.4395 9.14868L11.0156 9.14966Z" fill="currentColor" stroke="currentColor" stroke-width="0.15"/>
</svg>
